<svg width="158" height="1692" viewBox="0 0 148 1692" fill="none" xmlns="http://www.w3.org/2000/svg">
<rect width="158" height="1692" fill="#F5F5F5"/>
<path d="M60.6769 103V84.54H68.5029C69.3523 84.54 70.1323 84.7133 70.8429 85.06C71.5709 85.4067 72.1949 85.8747 72.7149 86.464C73.2349 87.0533 73.6423 87.712 73.9369 88.44C74.2316 89.168 74.3789 89.9133 74.3789 90.676C74.3789 91.716 74.1363 92.704 73.6509 93.64C73.1656 94.576 72.4896 95.3387 71.6229 95.928C70.7736 96.5173 69.7769 96.812 68.6329 96.812H64.2649V103H60.6769ZM64.2649 93.666H68.4249C69.0836 93.666 69.6296 93.3973 70.0629 92.86C70.5136 92.3053 70.7389 91.5773 70.7389 90.676C70.7389 89.7227 70.4876 88.986 69.9849 88.466C69.4823 87.946 68.9103 87.686 68.2689 87.686H64.2649V93.666ZM78.5661 108.876C78.2021 108.876 77.8295 108.833 77.4481 108.746C77.0841 108.659 76.6595 108.529 76.1741 108.356L76.8501 105.6C77.3701 105.825 77.8295 105.938 78.2281 105.938C79.1468 105.938 79.8055 105.305 80.2041 104.04L80.6201 102.922L75.1081 89.376H78.7221L82.3881 99.438L85.6121 89.376H88.9401L83.3761 104.95C82.9255 106.198 82.2668 107.16 81.4001 107.836C80.5508 108.529 79.6061 108.876 78.5661 108.876Z" fill="black"/>
<path d="M56.11 272.54H59.75L66.536 291H62.844L61.128 286.398H54.68L52.99 291H49.298L56.11 272.54ZM60.478 283.876L57.93 276.258L55.278 283.876H60.478ZM67.0836 286.97C67.0836 286.086 67.3263 285.315 67.8116 284.656C68.3143 283.98 69.0076 283.46 69.8916 283.096C70.7756 282.732 71.7896 282.55 72.9336 282.55C73.5056 282.55 74.0863 282.602 74.6756 282.706C75.2649 282.793 75.7763 282.923 76.2096 283.096V282.368C76.2096 281.501 75.9496 280.834 75.4296 280.366C74.9269 279.898 74.1729 279.664 73.1676 279.664C72.4223 279.664 71.7116 279.794 71.0356 280.054C70.3596 280.314 69.6489 280.695 68.9036 281.198L67.7856 278.91C68.6869 278.321 69.6056 277.879 70.5416 277.584C71.4949 277.289 72.4916 277.142 73.5316 277.142C75.4729 277.142 76.9809 277.627 78.0556 278.598C79.1476 279.569 79.6936 280.955 79.6936 282.758V287.1C79.6936 287.481 79.7543 287.75 79.8756 287.906C79.9969 288.045 80.2136 288.131 80.5256 288.166V291C80.2136 291.069 79.9276 291.113 79.6676 291.13C79.4249 291.165 79.2169 291.182 79.0436 291.182C78.3503 291.182 77.8216 291.026 77.4576 290.714C77.0936 290.402 76.8769 290.021 76.8076 289.57L76.7296 288.868C76.1229 289.648 75.3776 290.246 74.4936 290.662C73.6269 291.061 72.7343 291.26 71.8156 291.26C70.8969 291.26 70.0823 291.078 69.3716 290.714C68.6609 290.333 68.0976 289.821 67.6816 289.18C67.2829 288.521 67.0836 287.785 67.0836 286.97ZM75.5596 287.672C75.9929 287.256 76.2096 286.857 76.2096 286.476V285.098C75.3083 284.734 74.3983 284.552 73.4796 284.552C72.5609 284.552 71.8156 284.751 71.2436 285.15C70.6716 285.531 70.3856 286.043 70.3856 286.684C70.3856 287.204 70.5936 287.672 71.0096 288.088C71.4256 288.504 72.0236 288.712 72.8036 288.712C73.3236 288.712 73.8263 288.617 74.3116 288.426C74.8143 288.235 75.2303 287.984 75.5596 287.672ZM88.3053 272.54H91.9453L98.7313 291H95.0393L93.3233 286.398H86.8753L85.1853 291H81.4933L88.3053 272.54ZM92.6733 283.876L90.1253 276.258L87.4733 283.876H92.6733Z" fill="black"/>
<path d="M67.2843 850.242C67.2843 851.282 67.0156 852.157 66.4783 852.868C65.9409 853.561 65.2129 854.09 64.2943 854.454C63.3929 854.818 62.4049 855 61.3303 855H52.4123V836.54H62.2923C63.1589 836.54 63.9043 836.774 64.5283 837.242C65.1523 837.693 65.6376 838.282 65.9843 839.01C66.3309 839.738 66.5043 840.483 66.5043 841.246C66.5043 842.147 66.2789 842.997 65.8283 843.794C65.3776 844.574 64.7189 845.155 63.8523 845.536C64.9096 845.848 65.7416 846.411 66.3483 847.226C66.9723 848.041 67.2843 849.046 67.2843 850.242ZM56.0003 839.608V844.262H60.7843C61.3736 844.262 61.8849 844.054 62.3183 843.638C62.7516 843.222 62.9683 842.65 62.9683 841.922C62.9683 841.229 62.7689 840.674 62.3703 840.258C61.9889 839.825 61.5123 839.608 60.9403 839.608H56.0003ZM63.6703 849.566C63.6703 848.89 63.4623 848.309 63.0463 847.824C62.6303 847.339 62.1189 847.096 61.5123 847.096H56.0003V851.958H61.3303C61.9889 851.958 62.5436 851.724 62.9943 851.256C63.4449 850.788 63.6703 850.225 63.6703 849.566ZM69.6682 855V851.256H72.5282V855H69.6682ZM90.796 850.242C90.796 851.282 90.5273 852.157 89.99 852.868C89.4527 853.561 88.7247 854.09 87.806 854.454C86.9047 854.818 85.9167 855 84.842 855H75.924V836.54H85.804C86.6707 836.54 87.416 836.774 88.04 837.242C88.664 837.693 89.1493 838.282 89.496 839.01C89.8427 839.738 90.016 840.483 90.016 841.246C90.016 842.147 89.7907 842.997 89.34 843.794C88.8893 844.574 88.2307 845.155 87.364 845.536C88.4213 845.848 89.2533 846.411 89.86 847.226C90.484 848.041 90.796 849.046 90.796 850.242ZM79.512 839.608V844.262H84.296C84.8853 844.262 85.3967 844.054 85.83 843.638C86.2633 843.222 86.48 842.65 86.48 841.922C86.48 841.229 86.2807 840.674 85.882 840.258C85.5007 839.825 85.024 839.608 84.452 839.608H79.512ZM87.182 849.566C87.182 848.89 86.974 848.309 86.558 847.824C86.142 847.339 85.6307 847.096 85.024 847.096H79.512V851.958H84.842C85.5007 851.958 86.0553 851.724 86.506 851.256C86.9567 850.788 87.182 850.225 87.182 849.566ZM93.1799 855V851.256H96.0399V855H93.1799Z" fill="black"/>
<path d="M47.8355 1027.69H41.9335V1043H38.3715V1027.69H32.4695V1024.54H47.8355V1027.69ZM50.4968 1048.88C50.1328 1048.88 49.7601 1048.83 49.3788 1048.75C49.0148 1048.66 48.5901 1048.53 48.1048 1048.36L48.7808 1045.6C49.3008 1045.83 49.7601 1045.94 50.1588 1045.94C51.0775 1045.94 51.7361 1045.31 52.1348 1044.04L52.5508 1042.92L47.0388 1029.38H50.6528L54.3188 1039.44L57.5428 1029.38H60.8708L55.3068 1044.95C54.8561 1046.2 54.1975 1047.16 53.3308 1047.84C52.4815 1048.53 51.5368 1048.88 50.4968 1048.88ZM74.6937 1048.54V1043H74.3037C72.865 1043 71.6343 1042.69 70.6117 1042.06C69.6063 1041.42 68.835 1040.59 68.2977 1039.57C67.7603 1038.53 67.4917 1037.41 67.4917 1036.21C67.4917 1034.98 67.7603 1033.86 68.2977 1032.83C68.8523 1031.79 69.6323 1030.96 70.6377 1030.34C71.6603 1029.71 72.8823 1029.4 74.3037 1029.4H74.6937V1024.02H78.1777V1029.4H78.5937C80.015 1029.4 81.2283 1029.71 82.2337 1030.34C83.2563 1030.96 84.0363 1031.79 84.5737 1032.83C85.1283 1033.86 85.4057 1034.98 85.4057 1036.21C85.4057 1037.41 85.137 1038.53 84.5997 1039.57C84.0623 1040.59 83.2823 1041.42 82.2597 1042.06C81.2543 1042.69 80.0323 1043 78.5937 1043H78.1777V1048.54H74.6937ZM74.3037 1040.22H74.8757V1032.18H74.3037C73.3157 1032.18 72.501 1032.57 71.8597 1033.33C71.2183 1034.09 70.8977 1035.05 70.8977 1036.21C70.8977 1037.39 71.2097 1038.35 71.8337 1039.1C72.475 1039.85 73.2983 1040.22 74.3037 1040.22ZM78.0217 1040.22H78.5937C79.599 1040.22 80.4137 1039.85 81.0377 1039.1C81.679 1038.35 81.9997 1037.39 81.9997 1036.21C81.9997 1035.05 81.679 1034.09 81.0377 1033.33C80.3963 1032.57 79.5817 1032.18 78.5937 1032.18H78.0217V1040.22ZM86.7867 1038.97C86.7867 1038.09 87.0294 1037.31 87.5147 1036.66C88.0174 1035.98 88.7107 1035.46 89.5947 1035.1C90.4787 1034.73 91.4927 1034.55 92.6367 1034.55C93.2087 1034.55 93.7894 1034.6 94.3787 1034.71C94.9681 1034.79 95.4794 1034.92 95.9127 1035.1V1034.37C95.9127 1033.5 95.6527 1032.83 95.1327 1032.37C94.6301 1031.9 93.8761 1031.66 92.8707 1031.66C92.1254 1031.66 91.4147 1031.79 90.7387 1032.05C90.0627 1032.31 89.3521 1032.7 88.6067 1033.2L87.4887 1030.91C88.3901 1030.32 89.3087 1029.88 90.2447 1029.58C91.1981 1029.29 92.1947 1029.14 93.2347 1029.14C95.1761 1029.14 96.6841 1029.63 97.7587 1030.6C98.8507 1031.57 99.3967 1032.96 99.3967 1034.76V1039.1C99.3967 1039.48 99.4574 1039.75 99.5787 1039.91C99.7001 1040.04 99.9167 1040.13 100.229 1040.17V1043C99.9167 1043.07 99.6307 1043.11 99.3707 1043.13C99.1281 1043.16 98.9201 1043.18 98.7467 1043.18C98.0534 1043.18 97.5247 1043.03 97.1607 1042.71C96.7967 1042.4 96.5801 1042.02 96.5107 1041.57L96.4327 1040.87C95.8261 1041.65 95.0807 1042.25 94.1967 1042.66C93.3301 1043.06 92.4374 1043.26 91.5187 1043.26C90.6001 1043.26 89.7854 1043.08 89.0747 1042.71C88.3641 1042.33 87.8007 1041.82 87.3847 1041.18C86.9861 1040.52 86.7867 1039.78 86.7867 1038.97ZM95.2627 1039.67C95.6961 1039.26 95.9127 1038.86 95.9127 1038.48V1037.1C95.0114 1036.73 94.1014 1036.55 93.1827 1036.55C92.2641 1036.55 91.5187 1036.75 90.9467 1037.15C90.3747 1037.53 90.0887 1038.04 90.0887 1038.68C90.0887 1039.2 90.2967 1039.67 90.7127 1040.09C91.1287 1040.5 91.7267 1040.71 92.5067 1040.71C93.0267 1040.71 93.5294 1040.62 94.0147 1040.43C94.5174 1040.24 94.9334 1039.98 95.2627 1039.67ZM102.652 1043V1029.38H106.136V1034.52H107.306L110.998 1029.38H114.794L109.958 1035.95L115.314 1043H111.336L107.254 1037.59H106.136V1043H102.652Z" fill="black"/>
<path d="M27.8227 1231V1212.54H31.3847V1219.98H33.2047L38.6907 1212.54H42.6947L35.9867 1221.48L43.2147 1231H38.8727L33.1527 1223.23H31.3847V1231H27.8227ZM50.7364 1231.26C49.2457 1231.26 47.9631 1230.94 46.8884 1230.3C45.8311 1229.64 45.0164 1228.77 44.4444 1227.7C43.8724 1226.62 43.5864 1225.46 43.5864 1224.21C43.5864 1222.95 43.8724 1221.78 44.4444 1220.7C45.0337 1219.63 45.8571 1218.77 46.9144 1218.13C47.9891 1217.47 49.2631 1217.14 50.7364 1217.14C52.2097 1217.14 53.4751 1217.47 54.5324 1218.13C55.6071 1218.77 56.4304 1219.63 57.0024 1220.7C57.5744 1221.78 57.8604 1222.95 57.8604 1224.21C57.8604 1225.46 57.5744 1226.62 57.0024 1227.7C56.4304 1228.77 55.6071 1229.64 54.5324 1230.3C53.4751 1230.94 52.2097 1231.26 50.7364 1231.26ZM47.1744 1224.21C47.1744 1225.01 47.3304 1225.72 47.6424 1226.35C47.9544 1226.95 48.3791 1227.43 48.9164 1227.78C49.4537 1228.12 50.0604 1228.3 50.7364 1228.3C51.3951 1228.3 51.9931 1228.12 52.5304 1227.78C53.0677 1227.41 53.4924 1226.93 53.8044 1226.32C54.1337 1225.7 54.2984 1224.99 54.2984 1224.19C54.2984 1223.41 54.1337 1222.71 53.8044 1222.11C53.4924 1221.48 53.0677 1221 52.5304 1220.65C51.9931 1220.29 51.3951 1220.11 50.7364 1220.11C50.0604 1220.11 49.4537 1220.29 48.9164 1220.65C48.3791 1221 47.9544 1221.48 47.6424 1222.11C47.3304 1222.71 47.1744 1223.42 47.1744 1224.21ZM60.212 1231V1217.38H63.696V1222.58H69.208V1217.38H72.692V1231H69.208V1225.49H63.696V1231H60.212ZM82.222 1236.54V1231H81.832C80.3933 1231 79.1627 1230.69 78.14 1230.06C77.1347 1229.42 76.3633 1228.59 75.826 1227.57C75.2887 1226.53 75.02 1225.41 75.02 1224.21C75.02 1222.98 75.2887 1221.86 75.826 1220.83C76.3807 1219.79 77.1607 1218.96 78.166 1218.34C79.1887 1217.71 80.4107 1217.4 81.832 1217.4H82.222V1212.02H85.706V1217.4H86.122C87.5433 1217.4 88.7567 1217.71 89.762 1218.34C90.7847 1218.96 91.5647 1219.79 92.102 1220.83C92.6567 1221.86 92.934 1222.98 92.934 1224.21C92.934 1225.41 92.6653 1226.53 92.128 1227.57C91.5907 1228.59 90.8107 1229.42 89.788 1230.06C88.7827 1230.69 87.5607 1231 86.122 1231H85.706V1236.54H82.222ZM81.832 1228.22H82.404V1220.18H81.832C80.844 1220.18 80.0293 1220.57 79.388 1221.33C78.7467 1222.09 78.426 1223.05 78.426 1224.21C78.426 1225.39 78.738 1226.35 79.362 1227.1C80.0033 1227.85 80.8267 1228.22 81.832 1228.22ZM85.55 1228.22H86.122C87.1273 1228.22 87.942 1227.85 88.566 1227.1C89.2073 1226.35 89.528 1225.39 89.528 1224.21C89.528 1223.05 89.2073 1222.09 88.566 1221.33C87.9247 1220.57 87.11 1220.18 86.122 1220.18H85.55V1228.22ZM101.569 1231.26C100.096 1231.26 98.8217 1230.94 97.747 1230.3C96.6897 1229.66 95.8664 1228.81 95.277 1227.75C94.6877 1226.68 94.393 1225.51 94.393 1224.27C94.393 1222.98 94.679 1221.8 95.251 1220.73C95.8404 1219.64 96.6724 1218.77 97.747 1218.13C98.8217 1217.47 100.104 1217.14 101.595 1217.14C103.086 1217.14 104.36 1217.47 105.417 1218.13C106.474 1218.77 107.28 1219.63 107.835 1220.7C108.407 1221.76 108.693 1222.91 108.693 1224.14C108.693 1224.59 108.667 1224.98 108.615 1225.31H98.085C98.1717 1226.36 98.5617 1227.2 99.255 1227.8C99.9657 1228.41 100.78 1228.71 101.699 1228.71C102.392 1228.71 103.042 1228.55 103.649 1228.22C104.273 1227.87 104.698 1227.42 104.923 1226.87L107.913 1227.7C107.41 1228.74 106.604 1229.6 105.495 1230.27C104.386 1230.93 103.077 1231.26 101.569 1231.26ZM98.007 1223.1H105.131C105.027 1222.07 104.637 1221.25 103.961 1220.63C103.302 1219.98 102.496 1219.66 101.543 1219.66C100.607 1219.66 99.801 1219.98 99.125 1220.63C98.4664 1221.25 98.0937 1222.07 98.007 1223.1ZM113.961 1231V1220.42H109.645V1217.38H121.787V1220.42H117.445V1231H113.961Z" fill="black"/>
<path d="M31.6047 1419V1400.54H39.4307C40.28 1400.54 41.06 1400.71 41.7707 1401.06C42.4987 1401.41 43.1227 1401.87 43.6427 1402.46C44.1627 1403.05 44.57 1403.71 44.8647 1404.44C45.1593 1405.17 45.3067 1405.91 45.3067 1406.68C45.3067 1407.72 45.064 1408.7 44.5787 1409.64C44.0933 1410.58 43.4173 1411.34 42.5507 1411.93C41.7013 1412.52 40.7047 1412.81 39.5607 1412.81H35.1927V1419H31.6047ZM35.1927 1409.67H39.3527C40.0113 1409.67 40.5573 1409.4 40.9907 1408.86C41.4413 1408.31 41.6667 1407.58 41.6667 1406.68C41.6667 1405.72 41.4153 1404.99 40.9127 1404.47C40.41 1403.95 39.838 1403.69 39.1967 1403.69H35.1927V1409.67ZM46.3521 1414.97C46.3521 1414.09 46.5948 1413.31 47.0801 1412.66C47.5828 1411.98 48.2761 1411.46 49.1601 1411.1C50.0441 1410.73 51.0581 1410.55 52.2021 1410.55C52.7741 1410.55 53.3548 1410.6 53.9441 1410.71C54.5335 1410.79 55.0448 1410.92 55.4781 1411.1V1410.37C55.4781 1409.5 55.2181 1408.83 54.6981 1408.37C54.1955 1407.9 53.4415 1407.66 52.4361 1407.66C51.6908 1407.66 50.9801 1407.79 50.3041 1408.05C49.6281 1408.31 48.9175 1408.7 48.1721 1409.2L47.0541 1406.91C47.9555 1406.32 48.8741 1405.88 49.8101 1405.58C50.7635 1405.29 51.7601 1405.14 52.8001 1405.14C54.7415 1405.14 56.2495 1405.63 57.3241 1406.6C58.4161 1407.57 58.9621 1408.96 58.9621 1410.76V1415.1C58.9621 1415.48 59.0228 1415.75 59.1441 1415.91C59.2655 1416.04 59.4821 1416.13 59.7941 1416.17V1419C59.4821 1419.07 59.1961 1419.11 58.9361 1419.13C58.6935 1419.16 58.4855 1419.18 58.3121 1419.18C57.6188 1419.18 57.0901 1419.03 56.7261 1418.71C56.3621 1418.4 56.1455 1418.02 56.0761 1417.57L55.9981 1416.87C55.3915 1417.65 54.6461 1418.25 53.7621 1418.66C52.8955 1419.06 52.0028 1419.26 51.0841 1419.26C50.1655 1419.26 49.3508 1419.08 48.6401 1418.71C47.9295 1418.33 47.3661 1417.82 46.9501 1417.18C46.5515 1416.52 46.3521 1415.78 46.3521 1414.97ZM54.8281 1415.67C55.2615 1415.26 55.4781 1414.86 55.4781 1414.48V1413.1C54.5768 1412.73 53.6668 1412.55 52.7481 1412.55C51.8295 1412.55 51.0841 1412.75 50.5121 1413.15C49.9401 1413.53 49.6541 1414.04 49.6541 1414.68C49.6541 1415.2 49.8621 1415.67 50.2781 1416.09C50.6941 1416.5 51.2921 1416.71 52.0721 1416.71C52.5921 1416.71 53.0948 1416.62 53.5801 1416.43C54.0828 1416.24 54.4988 1415.98 54.8281 1415.67ZM61.0998 1422.3V1415.96H61.4638C61.9145 1415.96 62.3305 1415.78 62.7118 1415.44C63.0932 1415.09 63.4052 1414.47 63.6478 1413.57C63.9078 1412.66 64.0638 1411.36 64.1158 1409.67L64.2718 1405.38H74.4898V1415.96H76.3878V1422.3H73.3458V1419H64.1678V1422.3H61.0998ZM65.8578 1415.96H71.0058V1408.31H67.3138L67.2358 1410C67.1665 1411.74 67.0192 1413.06 66.7938 1413.98C66.5685 1414.9 66.2565 1415.56 65.8578 1415.96ZM80.6736 1424.88C80.3096 1424.88 79.9369 1424.83 79.5556 1424.75C79.1916 1424.66 78.7669 1424.53 78.2816 1424.36L78.9576 1421.6C79.4776 1421.83 79.9369 1421.94 80.3356 1421.94C81.2542 1421.94 81.9129 1421.31 82.3116 1420.04L82.7276 1418.92L77.2156 1405.38H80.8296L84.4956 1415.44L87.7196 1405.38H91.0476L85.4836 1420.95C85.0329 1422.2 84.3742 1423.16 83.5076 1423.84C82.6582 1424.53 81.7136 1424.88 80.6736 1424.88ZM92.9405 1419V1405.38H101.962V1408.42H96.4245V1419H92.9405ZM103.96 1419V1405.4H107.444V1414.35L113.554 1405.38H116.726V1419H113.242V1410.26L107.21 1419H103.96Z" fill="black"/>
<path d="M22.7407 1607V1594.88L18.0087 1603.91H16.0067L11.2747 1594.88V1607H7.6867V1588.54H11.5347L16.9947 1599.04L22.5067 1588.54H26.3287V1607H22.7407ZM28.7564 1602.97C28.7564 1602.09 28.9991 1601.31 29.4844 1600.66C29.9871 1599.98 30.6804 1599.46 31.5644 1599.1C32.4484 1598.73 33.4624 1598.55 34.6064 1598.55C35.1784 1598.55 35.7591 1598.6 36.3484 1598.71C36.9378 1598.79 37.4491 1598.92 37.8824 1599.1V1598.37C37.8824 1597.5 37.6224 1596.83 37.1024 1596.37C36.5998 1595.9 35.8458 1595.66 34.8404 1595.66C34.0951 1595.66 33.3844 1595.79 32.7084 1596.05C32.0324 1596.31 31.3218 1596.7 30.5764 1597.2L29.4584 1594.91C30.3598 1594.32 31.2784 1593.88 32.2144 1593.58C33.1678 1593.29 34.1644 1593.14 35.2044 1593.14C37.1458 1593.14 38.6538 1593.63 39.7284 1594.6C40.8204 1595.57 41.3664 1596.96 41.3664 1598.76V1603.1C41.3664 1603.48 41.4271 1603.75 41.5484 1603.91C41.6698 1604.04 41.8864 1604.13 42.1984 1604.17V1607C41.8864 1607.07 41.6004 1607.11 41.3404 1607.13C41.0978 1607.16 40.8898 1607.18 40.7164 1607.18C40.0231 1607.18 39.4944 1607.03 39.1304 1606.71C38.7664 1606.4 38.5498 1606.02 38.4804 1605.57L38.4024 1604.87C37.7958 1605.65 37.0504 1606.25 36.1664 1606.66C35.2998 1607.06 34.4071 1607.26 33.4884 1607.26C32.5698 1607.26 31.7551 1607.08 31.0444 1606.71C30.3338 1606.33 29.7704 1605.82 29.3544 1605.18C28.9558 1604.52 28.7564 1603.78 28.7564 1602.97ZM37.2324 1603.67C37.6658 1603.26 37.8824 1602.86 37.8824 1602.48V1601.1C36.9811 1600.73 36.0711 1600.55 35.1524 1600.55C34.2338 1600.55 33.4884 1600.75 32.9164 1601.15C32.3444 1601.53 32.0584 1602.04 32.0584 1602.68C32.0584 1603.2 32.2664 1603.67 32.6824 1604.09C33.0984 1604.5 33.6964 1604.71 34.4764 1604.71C34.9964 1604.71 35.4991 1604.62 35.9844 1604.43C36.4871 1604.24 36.9031 1603.98 37.2324 1603.67ZM44.6221 1607V1593.38H53.6441V1596.42H48.1061V1607H44.6221ZM54.7057 1602.97C54.7057 1602.09 54.9483 1601.31 55.4337 1600.66C55.9363 1599.98 56.6297 1599.46 57.5137 1599.1C58.3977 1598.73 59.4117 1598.55 60.5557 1598.55C61.1277 1598.55 61.7083 1598.6 62.2977 1598.71C62.887 1598.79 63.3983 1598.92 63.8317 1599.1V1598.37C63.8317 1597.5 63.5717 1596.83 63.0517 1596.37C62.549 1595.9 61.795 1595.66 60.7897 1595.66C60.0443 1595.66 59.3337 1595.79 58.6577 1596.05C57.9817 1596.31 57.271 1596.7 56.5257 1597.2L55.4077 1594.91C56.309 1594.32 57.2277 1593.88 58.1637 1593.58C59.117 1593.29 60.1137 1593.14 61.1537 1593.14C63.095 1593.14 64.603 1593.63 65.6777 1594.6C66.7697 1595.57 67.3157 1596.96 67.3157 1598.76V1603.1C67.3157 1603.48 67.3763 1603.75 67.4977 1603.91C67.619 1604.04 67.8357 1604.13 68.1477 1604.17V1607C67.8357 1607.07 67.5497 1607.11 67.2897 1607.13C67.047 1607.16 66.839 1607.18 66.6657 1607.18C65.9723 1607.18 65.4437 1607.03 65.0797 1606.71C64.7157 1606.4 64.499 1606.02 64.4297 1605.57L64.3517 1604.87C63.745 1605.65 62.9997 1606.25 62.1157 1606.66C61.249 1607.06 60.3563 1607.26 59.4377 1607.26C58.519 1607.26 57.7043 1607.08 56.9937 1606.71C56.283 1606.33 55.7197 1605.82 55.3037 1605.18C54.905 1604.52 54.7057 1603.78 54.7057 1602.97ZM63.1817 1603.67C63.615 1603.26 63.8317 1602.86 63.8317 1602.48V1601.1C62.9303 1600.73 62.0203 1600.55 61.1017 1600.55C60.183 1600.55 59.4377 1600.75 58.8657 1601.15C58.2937 1601.53 58.0077 1602.04 58.0077 1602.68C58.0077 1603.2 58.2157 1603.67 58.6317 1604.09C59.0477 1604.5 59.6457 1604.71 60.4257 1604.71C60.9457 1604.71 61.4483 1604.62 61.9337 1604.43C62.4363 1604.24 62.8523 1603.98 63.1817 1603.67ZM75.4334 1607.21C73.9774 1607.21 72.7554 1606.95 71.7674 1606.43C70.7967 1605.91 70.0427 1605.19 69.5054 1604.27L72.3134 1603C72.608 1603.45 72.9894 1603.8 73.4574 1604.06C73.9427 1604.3 74.5407 1604.43 75.2514 1604.43C76.066 1604.43 76.69 1604.27 77.1234 1603.96C77.574 1603.63 77.7994 1603.2 77.7994 1602.68C77.7994 1602.22 77.6174 1601.83 77.2534 1601.54C76.8894 1601.23 76.352 1601.07 75.6414 1601.07H74.2374V1598.91H75.6674C76.1527 1598.91 76.534 1598.78 76.8114 1598.5C77.106 1598.22 77.2534 1597.86 77.2534 1597.41C77.2534 1596.96 77.08 1596.6 76.7334 1596.34C76.404 1596.06 75.8754 1595.92 75.1474 1595.92C74.5407 1595.92 74.038 1596.04 73.6394 1596.26C73.2407 1596.49 72.92 1596.83 72.6774 1597.28L70.0514 1595.87C70.5367 1595.02 71.23 1594.36 72.1314 1593.87C73.05 1593.38 74.116 1593.14 75.3294 1593.14C76.2827 1593.14 77.132 1593.29 77.8774 1593.58C78.64 1593.88 79.238 1594.31 79.6714 1594.88C80.1047 1595.44 80.3214 1596.12 80.3214 1596.94C80.3214 1597.53 80.174 1598.1 79.8794 1598.65C79.602 1599.21 79.1427 1599.62 78.5014 1599.88C79.3334 1600.12 79.9574 1600.53 80.3734 1601.12C80.8067 1601.71 81.0234 1602.41 81.0234 1603.2C81.0234 1604.07 80.7807 1604.81 80.2954 1605.41C79.81 1606 79.1427 1606.45 78.2934 1606.77C77.4614 1607.06 76.508 1607.21 75.4334 1607.21ZM83.4698 1607V1593.4H86.9538V1602.35L93.0638 1593.38H96.2358V1607H92.7518V1598.26L86.7198 1607H83.4698ZM99.4151 1607V1593.38H102.899V1598.58H108.411V1593.38H111.895V1607H108.411V1601.49H102.899V1607H99.4151ZM114.145 1602.97C114.145 1602.09 114.388 1601.31 114.873 1600.66C115.376 1599.98 116.069 1599.46 116.953 1599.1C117.837 1598.73 118.851 1598.55 119.995 1598.55C120.567 1598.55 121.148 1598.6 121.737 1598.71C122.326 1598.79 122.838 1598.92 123.271 1599.1V1598.37C123.271 1597.5 123.011 1596.83 122.491 1596.37C121.988 1595.9 121.234 1595.66 120.229 1595.66C119.484 1595.66 118.773 1595.79 118.097 1596.05C117.421 1596.31 116.71 1596.7 115.965 1597.2L114.847 1594.91C115.748 1594.32 116.667 1593.88 117.603 1593.58C118.556 1593.29 119.553 1593.14 120.593 1593.14C122.534 1593.14 124.042 1593.63 125.117 1594.6C126.209 1595.57 126.755 1596.96 126.755 1598.76V1603.1C126.755 1603.48 126.816 1603.75 126.937 1603.91C127.058 1604.04 127.275 1604.13 127.587 1604.17V1607C127.275 1607.07 126.989 1607.11 126.729 1607.13C126.486 1607.16 126.278 1607.18 126.105 1607.18C125.412 1607.18 124.883 1607.03 124.519 1606.71C124.155 1606.4 123.938 1606.02 123.869 1605.57L123.791 1604.87C123.184 1605.65 122.439 1606.25 121.555 1606.66C120.688 1607.06 119.796 1607.26 118.877 1607.26C117.958 1607.26 117.144 1607.08 116.433 1606.71C115.722 1606.33 115.159 1605.82 114.743 1605.18C114.344 1604.52 114.145 1603.78 114.145 1602.97ZM122.621 1603.67C123.054 1603.26 123.271 1602.86 123.271 1602.48V1601.1C122.37 1600.73 121.46 1600.55 120.541 1600.55C119.622 1600.55 118.877 1600.75 118.305 1601.15C117.733 1601.53 117.447 1602.04 117.447 1602.68C117.447 1603.2 117.655 1603.67 118.071 1604.09C118.487 1604.5 119.085 1604.71 119.865 1604.71C120.385 1604.71 120.888 1604.62 121.373 1604.43C121.876 1604.24 122.292 1603.98 122.621 1603.67ZM132.247 1593.38L135.107 1597.64L135.315 1598.11L135.575 1597.64L138.409 1593.38H142.075L137.343 1600.16L142.153 1607H138.487L135.549 1602.76L135.315 1602.32L135.107 1602.76L132.195 1607H128.529L133.339 1600.24L128.607 1593.38H132.247Z" fill="black"/>
<path d="M33.4767 647.242C33.4767 648.282 33.208 649.157 32.6707 649.868C32.1333 650.561 31.4053 651.09 30.4867 651.454C29.5853 651.818 28.5973 652 27.5227 652H18.6047V633.54H28.4847C29.3513 633.54 30.0967 633.774 30.7207 634.242C31.3447 634.693 31.83 635.282 32.1767 636.01C32.5233 636.738 32.6967 637.483 32.6967 638.246C32.6967 639.147 32.4713 639.997 32.0207 640.794C31.57 641.574 30.9113 642.155 30.0447 642.536C31.102 642.848 31.934 643.411 32.5407 644.226C33.1647 645.041 33.4767 646.046 33.4767 647.242ZM22.1927 636.608V641.262H26.9767C27.566 641.262 28.0773 641.054 28.5107 640.638C28.944 640.222 29.1607 639.65 29.1607 638.922C29.1607 638.229 28.9613 637.674 28.5627 637.258C28.1813 636.825 27.7047 636.608 27.1327 636.608H22.1927ZM29.8627 646.566C29.8627 645.89 29.6547 645.309 29.2387 644.824C28.8227 644.339 28.3113 644.096 27.7047 644.096H22.1927V648.958H27.5227C28.1813 648.958 28.736 648.724 29.1867 648.256C29.6373 647.788 29.8627 647.225 29.8627 646.566ZM35.9385 652V638.376H39.4225V643.524H40.5925L44.2845 638.376H48.0805L43.2445 644.954L48.6005 652H44.6225L40.5405 646.592H39.4225V652H35.9385ZM52.7947 657.876C52.4307 657.876 52.058 657.833 51.6767 657.746C51.3127 657.659 50.888 657.529 50.4027 657.356L51.0787 654.6C51.5987 654.825 52.058 654.938 52.4567 654.938C53.3753 654.938 54.034 654.305 54.4327 653.04L54.8487 651.922L49.3367 638.376H52.9507L56.6167 648.438L59.8407 638.376H63.1687L57.6047 653.95C57.154 655.198 56.4953 656.16 55.6287 656.836C54.7793 657.529 53.8347 657.876 52.7947 657.876ZM70.9486 652.26C69.4752 652.26 68.2012 651.931 67.1266 651.272C66.0519 650.613 65.2199 649.747 64.6306 648.672C64.0412 647.597 63.7466 646.436 63.7466 645.188C63.7466 643.923 64.0326 642.753 64.6046 641.678C65.1939 640.603 66.0259 639.745 67.1006 639.104C68.1752 638.463 69.4492 638.142 70.9226 638.142C72.4132 638.142 73.6786 638.463 74.7186 639.104C75.7759 639.745 76.5646 640.586 77.0846 641.626L73.6786 642.666C73.0719 641.626 72.1446 641.106 70.8966 641.106C70.2206 641.106 69.6139 641.279 69.0766 641.626C68.5392 641.955 68.1146 642.432 67.8026 643.056C67.4906 643.663 67.3346 644.373 67.3346 645.188C67.3346 645.985 67.4906 646.696 67.8026 647.32C68.1319 647.927 68.5652 648.412 69.1026 648.776C69.6399 649.123 70.2379 649.296 70.8966 649.296C71.5206 649.296 72.0926 649.149 72.6126 648.854C73.1499 648.542 73.5226 648.152 73.7306 647.684L77.1366 648.724C76.6686 649.747 75.8886 650.596 74.7966 651.272C73.7219 651.931 72.4392 652.26 70.9486 652.26ZM79.2803 652V638.376H82.7643V643.576H88.2763V638.376H91.7603V652H88.2763V646.488H82.7643V652H79.2803ZM101.238 652.26C99.7477 652.26 98.465 651.939 97.3904 651.298C96.333 650.639 95.5184 649.773 94.9464 648.698C94.3744 647.623 94.0884 646.462 94.0884 645.214C94.0884 643.949 94.3744 642.779 94.9464 641.704C95.5357 640.629 96.359 639.771 97.4164 639.13C98.491 638.471 99.765 638.142 101.238 638.142C102.712 638.142 103.977 638.471 105.034 639.13C106.109 639.771 106.932 640.629 107.504 641.704C108.076 642.779 108.362 643.949 108.362 645.214C108.362 646.462 108.076 647.623 107.504 648.698C106.932 649.773 106.109 650.639 105.034 651.298C103.977 651.939 102.712 652.26 101.238 652.26ZM97.6764 645.214C97.6764 646.011 97.8324 646.722 98.1444 647.346C98.4564 647.953 98.881 648.429 99.4184 648.776C99.9557 649.123 100.562 649.296 101.238 649.296C101.897 649.296 102.495 649.123 103.032 648.776C103.57 648.412 103.994 647.927 104.306 647.32C104.636 646.696 104.8 645.985 104.8 645.188C104.8 644.408 104.636 643.715 104.306 643.108C103.994 642.484 103.57 641.999 103.032 641.652C102.495 641.288 101.897 641.106 101.238 641.106C100.562 641.106 99.9557 641.288 99.4184 641.652C98.881 641.999 98.4564 642.484 98.1444 643.108C97.8324 643.715 97.6764 644.417 97.6764 645.214ZM116.96 652V638.402H120.444V647.346L126.554 638.376H129.726V652H126.242V643.264L120.21 652H116.96ZM22.3292 683V669.376H34.5492V683H31.0652V672.418H25.8132V683H22.3292ZM44.0079 683.26C42.5172 683.26 41.2345 682.939 40.1599 682.298C39.1025 681.639 38.2879 680.773 37.7159 679.698C37.1439 678.623 36.8579 677.462 36.8579 676.214C36.8579 674.949 37.1439 673.779 37.7159 672.704C38.3052 671.629 39.1285 670.771 40.1859 670.13C41.2605 669.471 42.5345 669.142 44.0079 669.142C45.4812 669.142 46.7465 669.471 47.8039 670.13C48.8786 670.771 49.7019 671.629 50.2739 672.704C50.8459 673.779 51.1319 674.949 51.1319 676.214C51.1319 677.462 50.8459 678.623 50.2739 679.698C49.7019 680.773 48.8786 681.639 47.8039 682.298C46.7465 682.939 45.4812 683.26 44.0079 683.26ZM40.4459 676.214C40.4459 677.011 40.6019 677.722 40.9139 678.346C41.2259 678.953 41.6505 679.429 42.1879 679.776C42.7252 680.123 43.3319 680.296 44.0079 680.296C44.6665 680.296 45.2645 680.123 45.8019 679.776C46.3392 679.412 46.7639 678.927 47.0759 678.32C47.4052 677.696 47.5699 676.985 47.5699 676.188C47.5699 675.408 47.4052 674.715 47.0759 674.108C46.7639 673.484 46.3392 672.999 45.8019 672.652C45.2645 672.288 44.6665 672.106 44.0079 672.106C43.3319 672.106 42.7252 672.288 42.1879 672.652C41.6505 672.999 41.2259 673.484 40.9139 674.108C40.6019 674.715 40.4459 675.417 40.4459 676.214ZM52.4955 683.182V680.088C53.0501 680.071 53.5268 679.889 53.9255 679.542C54.3415 679.195 54.6708 678.563 54.9135 677.644C55.1561 676.725 55.3121 675.399 55.3815 673.666L55.5635 669.376H65.7815V683H62.2975V672.418H58.6315L58.5795 674.004C58.4755 676.379 58.1895 678.233 57.7215 679.568C57.2708 680.885 56.6121 681.813 55.7455 682.35C54.8788 682.887 53.7955 683.165 52.4955 683.182ZM75.2644 683.26C73.791 683.26 72.517 682.939 71.4424 682.298C70.385 681.657 69.5617 680.807 68.9724 679.75C68.383 678.675 68.0884 677.514 68.0884 676.266C68.0884 674.983 68.3744 673.805 68.9464 672.73C69.5357 671.638 70.3677 670.771 71.4424 670.13C72.517 669.471 73.7997 669.142 75.2904 669.142C76.781 669.142 78.055 669.471 79.1124 670.13C80.1697 670.771 80.9757 671.629 81.5304 672.704C82.1024 673.761 82.3884 674.905 82.3884 676.136C82.3884 676.587 82.3624 676.977 82.3104 677.306H71.7804C71.867 678.363 72.257 679.195 72.9504 679.802C73.661 680.409 74.4757 680.712 75.3944 680.712C76.0877 680.712 76.7377 680.547 77.3444 680.218C77.9684 679.871 78.393 679.421 78.6184 678.866L81.6084 679.698C81.1057 680.738 80.2997 681.596 79.1904 682.272C78.081 682.931 76.7724 683.26 75.2644 683.26ZM71.7024 675.096H78.8264C78.7224 674.073 78.3324 673.25 77.6564 672.626C76.9977 671.985 76.1917 671.664 75.2384 671.664C74.3024 671.664 73.4964 671.985 72.8204 672.626C72.1617 673.25 71.789 674.073 71.7024 675.096ZM89.3728 683.208C87.9168 683.208 86.6948 682.948 85.7068 682.428C84.7361 681.908 83.9821 681.189 83.4448 680.27L86.2528 678.996C86.5475 679.447 86.9288 679.802 87.3968 680.062C87.8821 680.305 88.4801 680.426 89.1908 680.426C90.0055 680.426 90.6295 680.27 91.0628 679.958C91.5135 679.629 91.7388 679.204 91.7388 678.684C91.7388 678.216 91.5568 677.835 91.1928 677.54C90.8288 677.228 90.2915 677.072 89.5808 677.072H88.1768V674.914H89.6068C90.0921 674.914 90.4735 674.775 90.7508 674.498C91.0455 674.221 91.1928 673.857 91.1928 673.406C91.1928 672.955 91.0195 672.6 90.6728 672.34C90.3435 672.063 89.8148 671.924 89.0868 671.924C88.4801 671.924 87.9775 672.037 87.5788 672.262C87.1801 672.487 86.8595 672.825 86.6168 673.276L83.9908 671.872C84.4761 671.023 85.1695 670.355 86.0708 669.87C86.9895 669.385 88.0555 669.142 89.2688 669.142C90.2221 669.142 91.0715 669.289 91.8168 669.584C92.5795 669.879 93.1775 670.312 93.6108 670.884C94.0441 671.439 94.2608 672.123 94.2608 672.938C94.2608 673.527 94.1135 674.099 93.8188 674.654C93.5415 675.209 93.0821 675.616 92.4408 675.876C93.2728 676.119 93.8968 676.535 94.3128 677.124C94.7461 677.713 94.9628 678.407 94.9628 679.204C94.9628 680.071 94.7201 680.807 94.2348 681.414C93.7495 682.003 93.0821 682.454 92.2328 682.766C91.4008 683.061 90.4475 683.208 89.3728 683.208ZM97.4092 683V669.376H100.893V674.576H106.405V669.376H109.889V683H106.405V677.488H100.893V683H97.4092ZM119.367 683.26C117.877 683.26 116.594 682.939 115.519 682.298C114.462 681.639 113.647 680.773 113.075 679.698C112.503 678.623 112.217 677.462 112.217 676.214C112.217 674.949 112.503 673.779 113.075 672.704C113.665 671.629 114.488 670.771 115.545 670.13C116.62 669.471 117.894 669.142 119.367 669.142C120.841 669.142 122.106 669.471 123.163 670.13C124.238 670.771 125.061 671.629 125.633 672.704C126.205 673.779 126.491 674.949 126.491 676.214C126.491 677.462 126.205 678.623 125.633 679.698C125.061 680.773 124.238 681.639 123.163 682.298C122.106 682.939 120.841 683.26 119.367 683.26ZM115.805 676.214C115.805 677.011 115.961 677.722 116.273 678.346C116.585 678.953 117.01 679.429 117.547 679.776C118.085 680.123 118.691 680.296 119.367 680.296C120.026 680.296 120.624 680.123 121.161 679.776C121.699 679.412 122.123 678.927 122.435 678.32C122.765 677.696 122.929 676.985 122.929 676.188C122.929 675.408 122.765 674.715 122.435 674.108C122.123 673.484 121.699 672.999 121.161 672.652C120.624 672.288 120.026 672.106 119.367 672.106C118.691 672.106 118.085 672.288 117.547 672.652C117.01 672.999 116.585 673.484 116.273 674.108C115.961 674.715 115.805 675.417 115.805 676.214Z" fill="black"/>
<path d="M53.8989 479V460.54H67.2109V463.634H57.4609V468.08H62.4789C64.5415 468.08 66.0929 468.565 67.1329 469.536C68.1729 470.507 68.6929 471.807 68.6929 473.436C68.6929 475.083 68.1902 476.426 67.1849 477.466C66.1795 478.489 64.6715 479 62.6609 479H53.8989ZM57.4609 475.906H62.1669C63.2069 475.906 63.9435 475.637 64.3769 475.1C64.8102 474.563 65.0269 473.965 65.0269 473.306C65.0269 472.89 64.9402 472.5 64.7669 472.136C64.6109 471.755 64.3162 471.451 63.8829 471.226C63.4669 470.983 62.8775 470.862 62.1149 470.862H57.4609V475.906ZM77.168 479.26C75.6774 479.26 74.3947 478.939 73.32 478.298C72.2627 477.639 71.448 476.773 70.876 475.698C70.304 474.623 70.018 473.462 70.018 472.214C70.018 470.949 70.304 469.779 70.876 468.704C71.4654 467.629 72.2887 466.771 73.346 466.13C74.4207 465.471 75.6947 465.142 77.168 465.142C78.6414 465.142 79.9067 465.471 80.964 466.13C82.0387 466.771 82.862 467.629 83.434 468.704C84.006 469.779 84.292 470.949 84.292 472.214C84.292 473.462 84.006 474.623 83.434 475.698C82.862 476.773 82.0387 477.639 80.964 478.298C79.9067 478.939 78.6414 479.26 77.168 479.26ZM73.606 472.214C73.606 473.011 73.762 473.722 74.074 474.346C74.386 474.953 74.8107 475.429 75.348 475.776C75.8854 476.123 76.492 476.296 77.168 476.296C77.8267 476.296 78.4247 476.123 78.962 475.776C79.4994 475.412 79.924 474.927 80.236 474.32C80.5654 473.696 80.73 472.985 80.73 472.188C80.73 471.408 80.5654 470.715 80.236 470.108C79.924 469.484 79.4994 468.999 78.962 468.652C78.4247 468.288 77.8267 468.106 77.168 468.106C76.492 468.106 75.8854 468.288 75.348 468.652C74.8107 468.999 74.386 469.484 74.074 470.108C73.762 470.715 73.606 471.417 73.606 472.214ZM86.6436 479V465.376H95.6656V468.418H90.1276V479H86.6436Z" fill="black"/>
</svg>
