<svg width="158" height="1692" viewBox="0 0 148 1692" fill="none" xmlns="http://www.w3.org/2000/svg">
<rect width="158" height="1692" fill="#F5F5F5"/>
<path d="M44.5805 103V84.54H57.8925V87.634H48.1425V92.08H53.1605C55.2232 92.08 56.7745 92.5653 57.8145 93.536C58.8545 94.5067 59.3745 95.8067 59.3745 97.436C59.3745 99.0827 58.8718 100.426 57.8665 101.466C56.8612 102.489 55.3532 103 53.3425 103H44.5805ZM48.1425 99.906H52.8485C53.8885 99.906 54.6252 99.6373 55.0585 99.1C55.4918 98.5627 55.7085 97.9647 55.7085 97.306C55.7085 96.89 55.6218 96.5 55.4485 96.136C55.2925 95.7547 54.9978 95.4513 54.5645 95.226C54.1485 94.9833 53.5592 94.862 52.7965 94.862H48.1425V99.906ZM60.6217 98.97C60.6217 98.086 60.8643 97.3147 61.3497 96.656C61.8523 95.98 62.5457 95.46 63.4297 95.096C64.3137 94.732 65.3277 94.55 66.4717 94.55C67.0437 94.55 67.6243 94.602 68.2137 94.706C68.803 94.7927 69.3143 94.9227 69.7477 95.096V94.368C69.7477 93.5013 69.4877 92.834 68.9677 92.366C68.465 91.898 67.711 91.664 66.7057 91.664C65.9603 91.664 65.2497 91.794 64.5737 92.054C63.8977 92.314 63.187 92.6953 62.4417 93.198L61.3237 90.91C62.225 90.3207 63.1437 89.8787 64.0797 89.584C65.033 89.2893 66.0297 89.142 67.0697 89.142C69.011 89.142 70.519 89.6273 71.5937 90.598C72.6857 91.5687 73.2317 92.9553 73.2317 94.758V99.1C73.2317 99.4813 73.2923 99.75 73.4137 99.906C73.535 100.045 73.7517 100.131 74.0637 100.166V103C73.7517 103.069 73.4657 103.113 73.2057 103.13C72.963 103.165 72.755 103.182 72.5817 103.182C71.8883 103.182 71.3597 103.026 70.9957 102.714C70.6317 102.402 70.415 102.021 70.3457 101.57L70.2677 100.868C69.661 101.648 68.9157 102.246 68.0317 102.662C67.165 103.061 66.2723 103.26 65.3537 103.26C64.435 103.26 63.6203 103.078 62.9097 102.714C62.199 102.333 61.6357 101.821 61.2197 101.18C60.821 100.521 60.6217 99.7847 60.6217 98.97ZM69.0977 99.672C69.531 99.256 69.7477 98.8573 69.7477 98.476V97.098C68.8463 96.734 67.9363 96.552 67.0177 96.552C66.099 96.552 65.3537 96.7513 64.7817 97.15C64.2097 97.5313 63.9237 98.0427 63.9237 98.684C63.9237 99.204 64.1317 99.672 64.5477 100.088C64.9637 100.504 65.5617 100.712 66.3417 100.712C66.8617 100.712 67.3643 100.617 67.8497 100.426C68.3523 100.235 68.7683 99.984 69.0977 99.672ZM76.4874 103V89.376H79.9714V94.576H85.4834V89.376H88.9674V103H85.4834V97.488H79.9714V103H76.4874ZM92.1534 103V89.376H95.6374V94.524H96.8074L100.499 89.376H104.295L99.4594 95.954L104.815 103H100.837L96.7554 97.592H95.6374V103H92.1534Z" fill="black"/>
<path d="M64.8443 272.54H68.4843L75.2703 291H71.5783L69.8623 286.398H63.4143L61.7243 291H58.0323L64.8443 272.54ZM69.2123 283.876L66.6643 276.258L64.0123 283.876H69.2123ZM75.818 286.97C75.818 286.086 76.0606 285.315 76.546 284.656C77.0486 283.98 77.742 283.46 78.626 283.096C79.51 282.732 80.524 282.55 81.668 282.55C82.24 282.55 82.8206 282.602 83.41 282.706C83.9993 282.793 84.5106 282.923 84.944 283.096V282.368C84.944 281.501 84.684 280.834 84.164 280.366C83.6613 279.898 82.9073 279.664 81.902 279.664C81.1566 279.664 80.446 279.794 79.77 280.054C79.094 280.314 78.3833 280.695 77.638 281.198L76.52 278.91C77.4213 278.321 78.34 277.879 79.276 277.584C80.2293 277.289 81.226 277.142 82.266 277.142C84.2073 277.142 85.7153 277.627 86.79 278.598C87.882 279.569 88.428 280.955 88.428 282.758V287.1C88.428 287.481 88.4886 287.75 88.61 287.906C88.7313 288.045 88.948 288.131 89.26 288.166V291C88.948 291.069 88.662 291.113 88.402 291.13C88.1593 291.165 87.9513 291.182 87.778 291.182C87.0846 291.182 86.556 291.026 86.192 290.714C85.828 290.402 85.6113 290.021 85.542 289.57L85.464 288.868C84.8573 289.648 84.112 290.246 83.228 290.662C82.3613 291.061 81.4686 291.26 80.55 291.26C79.6313 291.26 78.8166 291.078 78.106 290.714C77.3953 290.333 76.832 289.821 76.416 289.18C76.0173 288.521 75.818 287.785 75.818 286.97ZM84.294 287.672C84.7273 287.256 84.944 286.857 84.944 286.476V285.098C84.0426 284.734 83.1326 284.552 82.214 284.552C81.2953 284.552 80.55 284.751 79.978 285.15C79.406 285.531 79.12 286.043 79.12 286.684C79.12 287.204 79.328 287.672 79.744 288.088C80.16 288.504 80.758 288.712 81.538 288.712C82.058 288.712 82.5606 288.617 83.046 288.426C83.5486 288.235 83.9646 287.984 84.294 287.672Z" fill="black"/>
<path d="M33.0042 855V836.54H36.5662V849.956L45.5102 836.54H48.8382V855H45.2762V841.74L36.4362 855H33.0042ZM52.4678 855V841.376H56.1078L60.3718 849.254L64.6618 841.376H68.2498V855H64.9478V846.186L61.4638 852.582H59.2798L55.7698 846.186V855H52.4678ZM77.778 855.26C76.3047 855.26 75.0307 854.939 73.956 854.298C72.8987 853.657 72.0754 852.807 71.486 851.75C70.8967 850.675 70.602 849.514 70.602 848.266C70.602 846.983 70.888 845.805 71.46 844.73C72.0494 843.638 72.8814 842.771 73.956 842.13C75.0307 841.471 76.3134 841.142 77.804 841.142C79.2947 841.142 80.5687 841.471 81.626 842.13C82.6834 842.771 83.4894 843.629 84.044 844.704C84.616 845.761 84.902 846.905 84.902 848.136C84.902 848.587 84.876 848.977 84.824 849.306H74.294C74.3807 850.363 74.7707 851.195 75.464 851.802C76.1747 852.409 76.9894 852.712 77.908 852.712C78.6014 852.712 79.2514 852.547 79.858 852.218C80.482 851.871 80.9067 851.421 81.132 850.866L84.122 851.698C83.6194 852.738 82.8134 853.596 81.704 854.272C80.5947 854.931 79.286 855.26 77.778 855.26ZM74.216 847.096H81.34C81.236 846.073 80.846 845.25 80.17 844.626C79.5114 843.985 78.7054 843.664 77.752 843.664C76.816 843.664 76.01 843.985 75.334 844.626C74.6754 845.25 74.3027 846.073 74.216 847.096ZM87.0245 855V841.376H90.5085V846.576H96.0205V841.376H99.5045V855H96.0205V849.488H90.5085V855H87.0245ZM102.69 855V841.402H106.174V850.346L112.284 841.376H115.456V855H111.972V846.264L105.94 855H102.69Z" fill="black"/>
<path d="M75.1939 1027.69H69.2919V1043H65.7299V1027.69H59.8279V1024.54H75.1939V1027.69ZM77.8552 1048.88C77.4912 1048.88 77.1185 1048.83 76.7372 1048.75C76.3732 1048.66 75.9485 1048.53 75.4632 1048.36L76.1392 1045.6C76.6592 1045.83 77.1185 1045.94 77.5172 1045.94C78.4359 1045.94 79.0945 1045.31 79.4932 1044.04L79.9092 1042.92L74.3972 1029.38H78.0112L81.6772 1039.44L84.9012 1029.38H88.2292L82.6652 1044.95C82.2145 1046.2 81.5559 1047.16 80.6892 1047.84C79.8399 1048.53 78.8952 1048.88 77.8552 1048.88Z" fill="black"/>
<path d="M25.8048 1231V1229.34C24.7128 1229.28 23.6642 1229.06 22.6588 1228.66C21.6708 1228.24 20.7955 1227.68 20.0328 1226.97C19.2702 1226.26 18.6635 1225.42 18.2128 1224.45C17.7795 1223.46 17.5628 1222.38 17.5628 1221.2C17.5802 1219.95 17.8142 1218.84 18.2648 1217.87C18.7155 1216.88 19.3308 1216.04 20.1108 1215.35C20.8908 1214.64 21.7662 1214.09 22.7368 1213.71C23.7248 1213.31 24.7475 1213.09 25.8048 1213.03V1211.63H29.2108V1213.03C30.2682 1213.09 31.2908 1213.31 32.2788 1213.71C33.2668 1214.11 34.1422 1214.66 34.9048 1215.37C35.6848 1216.07 36.3002 1216.91 36.7508 1217.9C37.2015 1218.87 37.4268 1219.97 37.4268 1221.2C37.4442 1222.39 37.2275 1223.49 36.7768 1224.47C36.3262 1225.44 35.7108 1226.29 34.9308 1227C34.1508 1227.71 33.2668 1228.26 32.2788 1228.66C31.2908 1229.06 30.2682 1229.28 29.2108 1229.34V1231H25.8048ZM25.9088 1226.45V1215.92C25.0422 1215.97 24.2448 1216.21 23.5168 1216.65C22.7888 1217.08 22.2082 1217.68 21.7748 1218.44C21.3588 1219.2 21.1508 1220.12 21.1508 1221.2C21.1508 1222.29 21.3762 1223.22 21.8268 1223.98C22.2775 1224.74 22.8582 1225.33 23.5688 1225.75C24.2968 1226.16 25.0768 1226.4 25.9088 1226.45ZM29.1068 1226.45C29.9562 1226.4 30.7362 1226.16 31.4468 1225.75C32.1748 1225.31 32.7555 1224.72 33.1888 1223.95C33.6395 1223.19 33.8648 1222.27 33.8648 1221.2C33.8648 1220.12 33.6395 1219.2 33.1888 1218.44C32.7555 1217.68 32.1748 1217.08 31.4468 1216.65C30.7362 1216.21 29.9562 1215.97 29.1068 1215.92V1226.45ZM38.735 1226.97C38.735 1226.09 38.9776 1225.31 39.463 1224.66C39.9656 1223.98 40.659 1223.46 41.543 1223.1C42.427 1222.73 43.441 1222.55 44.585 1222.55C45.157 1222.55 45.7376 1222.6 46.327 1222.71C46.9163 1222.79 47.4276 1222.92 47.861 1223.1V1222.37C47.861 1221.5 47.601 1220.83 47.081 1220.37C46.5783 1219.9 45.8243 1219.66 44.819 1219.66C44.0736 1219.66 43.363 1219.79 42.687 1220.05C42.011 1220.31 41.3003 1220.7 40.555 1221.2L39.437 1218.91C40.3383 1218.32 41.257 1217.88 42.193 1217.58C43.1463 1217.29 44.143 1217.14 45.183 1217.14C47.1243 1217.14 48.6323 1217.63 49.707 1218.6C50.799 1219.57 51.345 1220.96 51.345 1222.76V1227.1C51.345 1227.48 51.4056 1227.75 51.527 1227.91C51.6483 1228.04 51.865 1228.13 52.177 1228.17V1231C51.865 1231.07 51.579 1231.11 51.319 1231.13C51.0763 1231.16 50.8683 1231.18 50.695 1231.18C50.0016 1231.18 49.473 1231.03 49.109 1230.71C48.745 1230.4 48.5283 1230.02 48.459 1229.57L48.381 1228.87C47.7743 1229.65 47.029 1230.25 46.145 1230.66C45.2783 1231.06 44.3856 1231.26 43.467 1231.26C42.5483 1231.26 41.7336 1231.08 41.023 1230.71C40.3123 1230.33 39.749 1229.82 39.333 1229.18C38.9343 1228.52 38.735 1227.78 38.735 1226.97ZM47.211 1227.67C47.6443 1227.26 47.861 1226.86 47.861 1226.48V1225.1C46.9596 1224.73 46.0496 1224.55 45.131 1224.55C44.2123 1224.55 43.467 1224.75 42.895 1225.15C42.323 1225.53 42.037 1226.04 42.037 1226.68C42.037 1227.2 42.245 1227.67 42.661 1228.09C43.077 1228.5 43.675 1228.71 44.455 1228.71C44.975 1228.71 45.4776 1228.62 45.963 1228.43C46.4656 1228.24 46.8816 1227.98 47.211 1227.67ZM61.3866 1231.26C59.0466 1231.26 57.27 1230.58 56.0566 1229.21C54.8606 1227.82 54.2626 1225.8 54.2626 1223.15C54.2626 1220.95 54.5226 1219.19 55.0426 1217.87C55.5626 1216.54 56.334 1215.51 57.3566 1214.8C58.3793 1214.09 59.662 1213.55 61.2046 1213.16L67.0546 1211.68L67.1066 1214.52L61.3346 1216.02C60.0693 1216.41 59.0553 1216.99 58.2926 1217.77C57.53 1218.55 57.0793 1219.68 56.9406 1221.17C57.4606 1220.31 58.1713 1219.63 59.0726 1219.14C59.974 1218.66 61.066 1218.42 62.3486 1218.42C63.562 1218.42 64.628 1218.68 65.5466 1219.2C66.4653 1219.72 67.176 1220.44 67.6786 1221.38C68.1986 1222.3 68.4586 1223.36 68.4586 1224.55C68.4586 1225.85 68.19 1227.01 67.6526 1228.04C67.1153 1229.04 66.318 1229.83 65.2606 1230.4C64.2033 1230.97 62.912 1231.26 61.3866 1231.26ZM61.3866 1228.3C62.4613 1228.3 63.3106 1227.98 63.9346 1227.33C64.576 1226.68 64.8966 1225.81 64.8966 1224.73C64.8966 1223.69 64.5846 1222.84 63.9606 1222.19C63.3366 1221.53 62.4786 1221.2 61.3866 1221.2C60.364 1221.2 59.5146 1221.51 58.8386 1222.13C58.18 1222.76 57.8506 1223.62 57.8506 1224.73C57.8506 1225.79 58.1626 1226.65 58.7866 1227.31C59.4106 1227.97 60.2773 1228.3 61.3866 1228.3ZM78.9385 1231.26C77.8638 1231.26 76.9278 1231.02 76.1305 1230.53C75.3331 1230.05 74.7091 1229.41 74.2585 1228.61V1236.54H70.7745V1217.38H73.8165V1219.72C74.3191 1218.92 74.9691 1218.29 75.7665 1217.84C76.5811 1217.38 77.4998 1217.14 78.5225 1217.14C79.7531 1217.14 80.8451 1217.46 81.7985 1218.1C82.7518 1218.73 83.5058 1219.58 84.0605 1220.65C84.6151 1221.71 84.8925 1222.88 84.8925 1224.16C84.8925 1225.5 84.6325 1226.7 84.1125 1227.78C83.6098 1228.83 82.9078 1229.68 82.0065 1230.32C81.1225 1230.95 80.0998 1231.26 78.9385 1231.26ZM77.7685 1228.3C78.4791 1228.3 79.0945 1228.11 79.6145 1227.72C80.1518 1227.33 80.5678 1226.81 80.8625 1226.19C81.1745 1225.55 81.3305 1224.87 81.3305 1224.16C81.3305 1223.4 81.1658 1222.71 80.8365 1222.11C80.5071 1221.48 80.0565 1221 79.4845 1220.65C78.9298 1220.29 78.2885 1220.11 77.5605 1220.11C76.9018 1220.11 76.2431 1220.32 75.5845 1220.76C74.9258 1221.19 74.4838 1221.74 74.2585 1222.39V1225.59C74.5705 1226.35 75.0471 1227 75.6885 1227.52C76.3298 1228.04 77.0231 1228.3 77.7685 1228.3ZM87.253 1231V1217.4H90.737V1226.35L96.847 1217.38H100.019V1231H96.535V1222.26L90.503 1231H87.253ZM103.198 1231V1217.38H106.682V1222.52H107.852L111.544 1217.38H115.34L110.504 1223.95L115.86 1231H111.882L107.8 1225.59H106.682V1231H103.198ZM116.963 1226.97C116.963 1226.09 117.206 1225.31 117.691 1224.66C118.194 1223.98 118.887 1223.46 119.771 1223.1C120.655 1222.73 121.669 1222.55 122.813 1222.55C123.385 1222.55 123.966 1222.6 124.555 1222.71C125.145 1222.79 125.656 1222.92 126.089 1223.1V1222.37C126.089 1221.5 125.829 1220.83 125.309 1220.37C124.807 1219.9 124.053 1219.66 123.047 1219.66C122.302 1219.66 121.591 1219.79 120.915 1220.05C120.239 1220.31 119.529 1220.7 118.783 1221.2L117.665 1218.91C118.567 1218.32 119.485 1217.88 120.421 1217.58C121.375 1217.29 122.371 1217.14 123.411 1217.14C125.353 1217.14 126.861 1217.63 127.935 1218.6C129.027 1219.57 129.573 1220.96 129.573 1222.76V1227.1C129.573 1227.48 129.634 1227.75 129.755 1227.91C129.877 1228.04 130.093 1228.13 130.405 1228.17V1231C130.093 1231.07 129.807 1231.11 129.547 1231.13C129.305 1231.16 129.097 1231.18 128.923 1231.18C128.23 1231.18 127.701 1231.03 127.337 1230.71C126.973 1230.4 126.757 1230.02 126.687 1229.57L126.609 1228.87C126.003 1229.65 125.257 1230.25 124.373 1230.66C123.507 1231.06 122.614 1231.26 121.695 1231.26C120.777 1231.26 119.962 1231.08 119.251 1230.71C118.541 1230.33 117.977 1229.82 117.561 1229.18C117.163 1228.52 116.963 1227.78 116.963 1226.97ZM125.439 1227.67C125.873 1227.26 126.089 1226.86 126.089 1226.48V1225.1C125.188 1224.73 124.278 1224.55 123.359 1224.55C122.441 1224.55 121.695 1224.75 121.123 1225.15C120.551 1225.53 120.265 1226.04 120.265 1226.68C120.265 1227.2 120.473 1227.67 120.889 1228.09C121.305 1228.5 121.903 1228.71 122.683 1228.71C123.203 1228.71 123.706 1228.62 124.191 1228.43C124.694 1228.24 125.11 1227.98 125.439 1227.67Z" fill="black"/>
<path d="M41.9709 1419.13C40.6189 1419.13 39.3883 1418.87 38.2789 1418.35C37.1869 1417.83 36.2423 1417.13 35.4449 1416.24C34.6649 1415.34 34.0583 1414.34 33.6249 1413.23C33.1916 1412.1 32.9749 1410.95 32.9749 1409.77C32.9749 1408.54 33.2003 1407.37 33.6509 1406.26C34.1016 1405.13 34.7343 1404.14 35.5489 1403.27C36.3636 1402.39 37.3169 1401.69 38.4089 1401.19C39.5183 1400.67 40.7316 1400.41 42.0489 1400.41C43.3836 1400.41 44.5969 1400.68 45.6889 1401.22C46.7983 1401.75 47.7429 1402.47 48.5229 1403.37C49.3203 1404.28 49.9269 1405.29 50.3429 1406.42C50.7763 1407.53 50.9929 1408.66 50.9929 1409.82C50.9929 1411.04 50.7676 1412.21 50.3169 1413.33C49.8663 1414.44 49.2336 1415.44 48.4189 1416.32C47.6216 1417.19 46.6683 1417.87 45.5589 1418.38C44.4669 1418.88 43.2709 1419.13 41.9709 1419.13ZM36.6149 1409.77C36.6149 1410.84 36.8229 1411.85 37.2389 1412.79C37.6723 1413.72 38.2876 1414.48 39.0849 1415.07C39.8996 1415.66 40.8703 1415.96 41.9969 1415.96C43.1583 1415.96 44.1376 1415.65 44.9349 1415.05C45.7323 1414.44 46.3389 1413.66 46.7549 1412.71C47.1709 1411.75 47.3789 1410.78 47.3789 1409.77C47.3789 1408.7 47.1623 1407.69 46.7289 1406.75C46.2956 1405.82 45.6716 1405.06 44.8569 1404.49C44.0596 1403.9 43.1063 1403.61 41.9969 1403.61C40.8356 1403.61 39.8563 1403.91 39.0589 1404.52C38.2616 1405.12 37.6549 1405.9 37.2389 1406.86C36.8229 1407.79 36.6149 1408.76 36.6149 1409.77ZM61.4443 1419.26C60.3697 1419.26 59.4337 1419.02 58.6363 1418.53C57.839 1418.05 57.215 1417.41 56.7643 1416.61V1424.54H53.2803V1405.38H56.3223V1407.72C56.825 1406.92 57.475 1406.29 58.2723 1405.84C59.087 1405.38 60.0057 1405.14 61.0283 1405.14C62.259 1405.14 63.351 1405.46 64.3043 1406.1C65.2577 1406.73 66.0117 1407.58 66.5663 1408.65C67.121 1409.71 67.3983 1410.88 67.3983 1412.16C67.3983 1413.5 67.1383 1414.7 66.6183 1415.78C66.1157 1416.83 65.4137 1417.68 64.5123 1418.32C63.6283 1418.95 62.6057 1419.26 61.4443 1419.26ZM60.2743 1416.3C60.985 1416.3 61.6003 1416.11 62.1203 1415.72C62.6577 1415.33 63.0737 1414.81 63.3683 1414.19C63.6803 1413.55 63.8363 1412.87 63.8363 1412.16C63.8363 1411.4 63.6717 1410.71 63.3423 1410.11C63.013 1409.48 62.5623 1409 61.9903 1408.65C61.4357 1408.29 60.7943 1408.11 60.0663 1408.11C59.4077 1408.11 58.749 1408.32 58.0903 1408.76C57.4317 1409.19 56.9897 1409.74 56.7643 1410.39V1413.59C57.0763 1414.35 57.553 1415 58.1943 1415.52C58.8357 1416.04 59.529 1416.3 60.2743 1416.3ZM68.6409 1422.3V1415.96H69.0049C69.4555 1415.96 69.8715 1415.78 70.2529 1415.44C70.6342 1415.09 70.9462 1414.47 71.1889 1413.57C71.4489 1412.66 71.6049 1411.36 71.6569 1409.67L71.8129 1405.38H82.0309V1415.96H83.9289V1422.3H80.8869V1419H71.7089V1422.3H68.6409ZM73.3989 1415.96H78.5469V1408.31H74.8549L74.7769 1410C74.7075 1411.74 74.5602 1413.06 74.3349 1413.98C74.1095 1414.9 73.7975 1415.56 73.3989 1415.96ZM92.5046 1419.26C91.0313 1419.26 89.7573 1418.94 88.6826 1418.3C87.6253 1417.66 86.8019 1416.81 86.2126 1415.75C85.6233 1414.68 85.3286 1413.51 85.3286 1412.27C85.3286 1410.98 85.6146 1409.8 86.1866 1408.73C86.7759 1407.64 87.6079 1406.77 88.6826 1406.13C89.7573 1405.47 91.0399 1405.14 92.5306 1405.14C94.0213 1405.14 95.2953 1405.47 96.3526 1406.13C97.4099 1406.77 98.2159 1407.63 98.7706 1408.7C99.3426 1409.76 99.6286 1410.91 99.6286 1412.14C99.6286 1412.59 99.6026 1412.98 99.5506 1413.31H89.0206C89.1073 1414.36 89.4973 1415.2 90.1906 1415.8C90.9013 1416.41 91.7159 1416.71 92.6346 1416.71C93.3279 1416.71 93.9779 1416.55 94.5846 1416.22C95.2086 1415.87 95.6333 1415.42 95.8586 1414.87L98.8486 1415.7C98.3459 1416.74 97.5399 1417.6 96.4306 1418.27C95.3213 1418.93 94.0126 1419.26 92.5046 1419.26ZM88.9426 1411.1H96.0666C95.9626 1410.07 95.5726 1409.25 94.8966 1408.63C94.2379 1407.98 93.4319 1407.66 92.4786 1407.66C91.5426 1407.66 90.7366 1407.98 90.0606 1408.63C89.4019 1409.25 89.0293 1410.07 88.9426 1411.1ZM101.751 1419V1405.38H105.235V1410.58H110.747V1405.38H114.231V1419H110.747V1413.49H105.235V1419H101.751Z" fill="black"/>
<path d="M28.5231 1588.54H32.1631L38.9491 1607H35.2571L33.5411 1602.4H27.0931L25.4031 1607H21.7111L28.5231 1588.54ZM32.8911 1599.88L30.3431 1592.26L27.6911 1599.88H32.8911ZM46.0694 1607V1593.38H49.5534V1598.58H55.0654V1593.38H58.5494V1607H55.0654V1601.49H49.5534V1607H46.0694ZM68.0534 1607.26C66.5801 1607.26 65.3061 1606.94 64.2314 1606.3C63.1741 1605.66 62.3507 1604.81 61.7614 1603.75C61.1721 1602.68 60.8774 1601.51 60.8774 1600.27C60.8774 1598.98 61.1634 1597.8 61.7354 1596.73C62.3247 1595.64 63.1567 1594.77 64.2314 1594.13C65.3061 1593.47 66.5887 1593.14 68.0794 1593.14C69.5701 1593.14 70.8441 1593.47 71.9014 1594.13C72.9587 1594.77 73.7647 1595.63 74.3194 1596.7C74.8914 1597.76 75.1774 1598.91 75.1774 1600.14C75.1774 1600.59 75.1514 1600.98 75.0994 1601.31H64.5694C64.6561 1602.36 65.0461 1603.2 65.7394 1603.8C66.4501 1604.41 67.2647 1604.71 68.1834 1604.71C68.8767 1604.71 69.5267 1604.55 70.1334 1604.22C70.7574 1603.87 71.1821 1603.42 71.4074 1602.87L74.3974 1603.7C73.8947 1604.74 73.0887 1605.6 71.9794 1606.27C70.8701 1606.93 69.5614 1607.26 68.0534 1607.26ZM64.4914 1599.1H71.6154C71.5114 1598.07 71.1214 1597.25 70.4454 1596.63C69.7867 1595.98 68.9807 1595.66 68.0274 1595.66C67.0914 1595.66 66.2854 1595.98 65.6094 1596.63C64.9507 1597.25 64.5781 1598.07 64.4914 1599.1ZM83.546 1607V1593.38H87.03V1598.52H88.2L91.892 1593.38H95.688L90.852 1599.95L96.208 1607H92.23L88.148 1601.59H87.03V1607H83.546ZM97.3111 1602.97C97.3111 1602.09 97.5538 1601.31 98.0391 1600.66C98.5418 1599.98 99.2351 1599.46 100.119 1599.1C101.003 1598.73 102.017 1598.55 103.161 1598.55C103.733 1598.55 104.314 1598.6 104.903 1598.71C105.492 1598.79 106.004 1598.92 106.437 1599.1V1598.37C106.437 1597.5 106.177 1596.83 105.657 1596.37C105.154 1595.9 104.4 1595.66 103.395 1595.66C102.65 1595.66 101.939 1595.79 101.263 1596.05C100.587 1596.31 99.8765 1596.7 99.1311 1597.2L98.0131 1594.91C98.9145 1594.32 99.8331 1593.88 100.769 1593.58C101.722 1593.29 102.719 1593.14 103.759 1593.14C105.7 1593.14 107.208 1593.63 108.283 1594.6C109.375 1595.57 109.921 1596.96 109.921 1598.76V1603.1C109.921 1603.48 109.982 1603.75 110.103 1603.91C110.224 1604.04 110.441 1604.13 110.753 1604.17V1607C110.441 1607.07 110.155 1607.11 109.895 1607.13C109.652 1607.16 109.444 1607.18 109.271 1607.18C108.578 1607.18 108.049 1607.03 107.685 1606.71C107.321 1606.4 107.104 1606.02 107.035 1605.57L106.957 1604.87C106.35 1605.65 105.605 1606.25 104.721 1606.66C103.854 1607.06 102.962 1607.26 102.043 1607.26C101.124 1607.26 100.31 1607.08 99.5991 1606.71C98.8885 1606.33 98.3251 1605.82 97.9091 1605.18C97.5105 1604.52 97.3111 1603.78 97.3111 1602.97ZM105.787 1603.67C106.22 1603.26 106.437 1602.86 106.437 1602.48V1601.1C105.536 1600.73 104.626 1600.55 103.707 1600.55C102.788 1600.55 102.043 1600.75 101.471 1601.15C100.899 1601.53 100.613 1602.04 100.613 1602.68C100.613 1603.2 100.821 1603.67 101.237 1604.09C101.653 1604.5 102.251 1604.71 103.031 1604.71C103.551 1604.71 104.054 1604.62 104.539 1604.43C105.042 1604.24 105.458 1603.98 105.787 1603.67ZM113.177 1607V1593.38H116.661V1598.52H117.831L121.523 1593.38H125.319L120.483 1599.95L125.839 1607H121.861L117.779 1601.59H116.661V1607H113.177Z" fill="black"/>
<path d="M28.4701 667V648.54H32.0321V655.976H33.8521L39.3381 648.54H43.3421L36.6341 657.484L43.8621 667H39.5201L33.8001 659.226H32.0321V667H28.4701ZM46.9929 672.876C46.6289 672.876 46.2562 672.833 45.8749 672.746C45.5109 672.659 45.0862 672.529 44.6009 672.356L45.2769 669.6C45.7969 669.825 46.2562 669.938 46.6549 669.938C47.5736 669.938 48.2322 669.305 48.6309 668.04L49.0469 666.922L43.5349 653.376H47.1489L50.8149 663.438L54.0389 653.376H57.3669L51.8029 668.95C51.3522 670.198 50.6936 671.16 49.8269 671.836C48.9776 672.529 48.0329 672.876 46.9929 672.876ZM59.2598 667V653.376H62.7438V663.958H67.0858V653.376H70.5958V663.958H74.9118V653.376H78.3958V667H59.2598ZM80.6422 662.97C80.6422 662.086 80.8849 661.315 81.3702 660.656C81.8729 659.98 82.5662 659.46 83.4502 659.096C84.3342 658.732 85.3482 658.55 86.4922 658.55C87.0642 658.55 87.6449 658.602 88.2342 658.706C88.8235 658.793 89.3349 658.923 89.7682 659.096V658.368C89.7682 657.501 89.5082 656.834 88.9882 656.366C88.4855 655.898 87.7315 655.664 86.7262 655.664C85.9809 655.664 85.2702 655.794 84.5942 656.054C83.9182 656.314 83.2075 656.695 82.4622 657.198L81.3442 654.91C82.2455 654.321 83.1642 653.879 84.1002 653.584C85.0535 653.289 86.0502 653.142 87.0902 653.142C89.0315 653.142 90.5395 653.627 91.6142 654.598C92.7062 655.569 93.2522 656.955 93.2522 658.758V663.1C93.2522 663.481 93.3129 663.75 93.4342 663.906C93.5555 664.045 93.7722 664.131 94.0842 664.166V667C93.7722 667.069 93.4862 667.113 93.2262 667.13C92.9835 667.165 92.7755 667.182 92.6022 667.182C91.9089 667.182 91.3802 667.026 91.0162 666.714C90.6522 666.402 90.4355 666.021 90.3662 665.57L90.2882 664.868C89.6815 665.648 88.9362 666.246 88.0522 666.662C87.1855 667.061 86.2929 667.26 85.3742 667.26C84.4555 667.26 83.6409 667.078 82.9302 666.714C82.2195 666.333 81.6562 665.821 81.2402 665.18C80.8415 664.521 80.6422 663.785 80.6422 662.97ZM89.1182 663.672C89.5515 663.256 89.7682 662.857 89.7682 662.476V661.098C88.8669 660.734 87.9569 660.552 87.0382 660.552C86.1195 660.552 85.3742 660.751 84.8022 661.15C84.2302 661.531 83.9442 662.043 83.9442 662.684C83.9442 663.204 84.1522 663.672 84.5682 664.088C84.9842 664.504 85.5822 664.712 86.3622 664.712C86.8822 664.712 87.3849 664.617 87.8702 664.426C88.3729 664.235 88.7889 663.984 89.1182 663.672ZM99.5015 667V656.418H95.1855V653.376H107.328V656.418H102.986V667H99.5015ZM109.279 667V653.376H112.763V657.666H115.857C117.487 657.666 118.735 658.082 119.601 658.914C120.468 659.746 120.901 660.847 120.901 662.216C120.901 663.62 120.485 664.773 119.653 665.674C118.839 666.558 117.651 667 116.091 667H109.279ZM112.763 664.348H115.545C116.256 664.348 116.776 664.149 117.105 663.75C117.435 663.334 117.599 662.831 117.599 662.242C117.599 661.67 117.443 661.193 117.131 660.812C116.819 660.413 116.282 660.214 115.519 660.214H112.763V664.348Z" fill="black"/>
<path d="M31.0434 479V466.884L26.3114 475.906H24.3094L19.5774 466.884V479H15.9894V460.54H19.8374L25.2974 471.044L30.8094 460.54H34.6314V479H31.0434ZM40.1755 484.876C39.8115 484.876 39.4389 484.833 39.0575 484.746C38.6935 484.659 38.2689 484.529 37.7835 484.356L38.4595 481.6C38.9795 481.825 39.4389 481.938 39.8375 481.938C40.7562 481.938 41.4149 481.305 41.8135 480.04L42.2295 478.922L36.7175 465.376H40.3315L43.9975 475.438L47.2215 465.376H50.5495L44.9855 480.95C44.5349 482.198 43.8762 483.16 43.0095 483.836C42.1602 484.529 41.2155 484.876 40.1755 484.876ZM51.4284 479L56.2124 471.954L51.7664 465.376H55.6404L59.1244 470.55H60.1904V465.376H63.7784V470.55H64.9224L68.3284 465.376H72.2284L67.7824 471.954L72.5924 479H68.6144L64.9224 473.566H63.7784V479H60.2164V473.566H59.1244L55.3804 479H51.4284ZM82.302 479V474.112C81.3314 474.545 80.2047 474.762 78.922 474.762C77.4834 474.762 76.3567 474.381 75.542 473.618C74.7274 472.838 74.32 471.703 74.32 470.212V465.376H77.804V469.744C77.804 471.321 78.532 472.11 79.988 472.11C80.404 472.11 80.8114 472.067 81.21 471.98C81.626 471.893 81.99 471.772 82.302 471.616V465.376H85.812V479H82.302ZM88.9796 479V465.402H92.4636V474.346L98.5736 465.376H101.746V479H98.2616V470.264L92.2296 479H88.9796ZM104.925 479V465.376H108.409V470.576H113.921V465.376H117.405V479H113.921V473.488H108.409V479H104.925ZM119.655 474.97C119.655 474.086 119.898 473.315 120.383 472.656C120.886 471.98 121.579 471.46 122.463 471.096C123.347 470.732 124.361 470.55 125.505 470.55C126.077 470.55 126.658 470.602 127.247 470.706C127.836 470.793 128.348 470.923 128.781 471.096V470.368C128.781 469.501 128.521 468.834 128.001 468.366C127.498 467.898 126.744 467.664 125.739 467.664C124.994 467.664 124.283 467.794 123.607 468.054C122.931 468.314 122.22 468.695 121.475 469.198L120.357 466.91C121.258 466.321 122.177 465.879 123.113 465.584C124.066 465.289 125.063 465.142 126.103 465.142C128.044 465.142 129.552 465.627 130.627 466.598C131.719 467.569 132.265 468.955 132.265 470.758V475.1C132.265 475.481 132.326 475.75 132.447 475.906C132.568 476.045 132.785 476.131 133.097 476.166V479C132.785 479.069 132.499 479.113 132.239 479.13C131.996 479.165 131.788 479.182 131.615 479.182C130.922 479.182 130.393 479.026 130.029 478.714C129.665 478.402 129.448 478.021 129.379 477.57L129.301 476.868C128.694 477.648 127.949 478.246 127.065 478.662C126.198 479.061 125.306 479.26 124.387 479.26C123.468 479.26 122.654 479.078 121.943 478.714C121.232 478.333 120.669 477.821 120.253 477.18C119.854 476.521 119.655 475.785 119.655 474.97ZM128.131 475.672C128.564 475.256 128.781 474.857 128.781 474.476V473.098C127.88 472.734 126.97 472.552 126.051 472.552C125.132 472.552 124.387 472.751 123.815 473.15C123.243 473.531 122.957 474.043 122.957 474.684C122.957 475.204 123.165 475.672 123.581 476.088C123.997 476.504 124.595 476.712 125.375 476.712C125.895 476.712 126.398 476.617 126.883 476.426C127.386 476.235 127.802 475.984 128.131 475.672Z" fill="black"/>
</svg>
