<svg width="158" height="1692" viewBox="0 0 148 1692" fill="none" xmlns="http://www.w3.org/2000/svg">
<rect width="158" height="1692" fill="#F5F5F5"/>
<path d="M60.2234 103C60.2234 101.977 60.336 101.067 60.5614 100.27C60.804 99.4727 61.22 98.7533 61.8094 98.112C62.3987 97.4707 63.2307 96.8467 64.3054 96.24C65.2587 95.7373 66.056 95.3127 66.6974 94.966C67.3387 94.6193 67.824 94.29 68.1534 93.978C68.5 93.6487 68.6734 93.2673 68.6734 92.834C68.6734 92.314 68.4654 91.872 68.0494 91.508C67.6334 91.1267 67.044 90.936 66.2814 90.936C65.4494 90.936 64.73 91.1353 64.1234 91.534C63.534 91.9327 63.0227 92.392 62.5894 92.912L60.3794 90.364C60.6914 90.0347 61.1594 89.6793 61.7834 89.298C62.4074 88.9167 63.1527 88.5873 64.0194 88.31C64.886 88.0327 65.8394 87.894 66.8794 87.894C68.6474 87.894 70.0167 88.31 70.9874 89.142C71.9754 89.9567 72.4694 91.014 72.4694 92.314C72.4694 93.1287 72.2787 93.822 71.8974 94.394C71.5334 94.9487 71.074 95.4253 70.5194 95.824C69.982 96.2053 69.462 96.5433 68.9594 96.838C67.85 97.3927 66.9747 97.878 66.3334 98.294C65.7094 98.71 65.2067 99.23 64.8254 99.854H72.7554V103H60.2234ZM82.0231 106.302V102.428H74.4311V99.334L83.1411 88.154H85.5071V99.308H87.7951V102.428H85.5071V106.302H82.0231ZM77.9151 99.308H82.4131V93.432L77.9151 99.308Z" fill="black"/>
<path d="M64.8443 272.54H68.4843L75.2703 291H71.5783L69.8623 286.398H63.4143L61.7243 291H58.0323L64.8443 272.54ZM69.2123 283.876L66.6643 276.258L64.0123 283.876H69.2123ZM75.818 286.97C75.818 286.086 76.0606 285.315 76.546 284.656C77.0486 283.98 77.742 283.46 78.626 283.096C79.51 282.732 80.524 282.55 81.668 282.55C82.24 282.55 82.8206 282.602 83.41 282.706C83.9993 282.793 84.5106 282.923 84.944 283.096V282.368C84.944 281.501 84.684 280.834 84.164 280.366C83.6613 279.898 82.9073 279.664 81.902 279.664C81.1566 279.664 80.446 279.794 79.77 280.054C79.094 280.314 78.3833 280.695 77.638 281.198L76.52 278.91C77.4213 278.321 78.34 277.879 79.276 277.584C80.2293 277.289 81.226 277.142 82.266 277.142C84.2073 277.142 85.7153 277.627 86.79 278.598C87.882 279.569 88.428 280.955 88.428 282.758V287.1C88.428 287.481 88.4886 287.75 88.61 287.906C88.7313 288.045 88.948 288.131 89.26 288.166V291C88.948 291.069 88.662 291.113 88.402 291.13C88.1593 291.165 87.9513 291.182 87.778 291.182C87.0846 291.182 86.556 291.026 86.192 290.714C85.828 290.402 85.6113 290.021 85.542 289.57L85.464 288.868C84.8573 289.648 84.112 290.246 83.228 290.662C82.3613 291.061 81.4686 291.26 80.55 291.26C79.6313 291.26 78.8166 291.078 78.106 290.714C77.3953 290.333 76.832 289.821 76.416 289.18C76.0173 288.521 75.818 287.785 75.818 286.97ZM84.294 287.672C84.7273 287.256 84.944 286.857 84.944 286.476V285.098C84.0426 284.734 83.1326 284.552 82.214 284.552C81.2953 284.552 80.55 284.751 79.978 285.15C79.406 285.531 79.12 286.043 79.12 286.684C79.12 287.204 79.328 287.672 79.744 288.088C80.16 288.504 80.758 288.712 81.538 288.712C82.058 288.712 82.5606 288.617 83.046 288.426C83.5486 288.235 83.9646 287.984 84.294 287.672Z" fill="black"/>
<path d="M29.6508 855V836.54H44.6008V855H41.0388V839.686H33.2128V855H29.6508ZM50.1794 860.876C49.8154 860.876 49.4428 860.833 49.0614 860.746C48.6974 860.659 48.2728 860.529 47.7874 860.356L48.4634 857.6C48.9834 857.825 49.4428 857.938 49.8414 857.938C50.7601 857.938 51.4188 857.305 51.8174 856.04L52.2334 854.922L46.7214 841.376H50.3354L54.0014 851.438L57.2254 841.376H60.5534L54.9894 856.95C54.5388 858.198 53.8801 859.16 53.0134 859.836C52.1641 860.529 51.2194 860.876 50.1794 860.876ZM65.5924 855V844.418H61.2764V841.376H73.4184V844.418H69.0764V855H65.5924ZM75.3702 855V841.402H78.8542V850.346L84.9642 841.376H88.1362V855H84.6522V846.264L78.6202 855H75.3702ZM91.3155 855V841.376H94.7995V846.576H100.311V841.376H103.795V855H100.311V849.488H94.7995V855H91.3155ZM106.046 850.97C106.046 850.086 106.288 849.315 106.774 848.656C107.276 847.98 107.97 847.46 108.854 847.096C109.738 846.732 110.752 846.55 111.896 846.55C112.468 846.55 113.048 846.602 113.638 846.706C114.227 846.793 114.738 846.923 115.172 847.096V846.368C115.172 845.501 114.912 844.834 114.392 844.366C113.889 843.898 113.135 843.664 112.13 843.664C111.384 843.664 110.674 843.794 109.998 844.054C109.322 844.314 108.611 844.695 107.866 845.198L106.748 842.91C107.649 842.321 108.568 841.879 109.504 841.584C110.457 841.289 111.454 841.142 112.494 841.142C114.435 841.142 115.943 841.627 117.018 842.598C118.11 843.569 118.656 844.955 118.656 846.758V851.1C118.656 851.481 118.716 851.75 118.838 851.906C118.959 852.045 119.176 852.131 119.488 852.166V855C119.176 855.069 118.89 855.113 118.63 855.13C118.387 855.165 118.179 855.182 118.006 855.182C117.312 855.182 116.784 855.026 116.42 854.714C116.056 854.402 115.839 854.021 115.77 853.57L115.692 852.868C115.085 853.648 114.34 854.246 113.456 854.662C112.589 855.061 111.696 855.26 110.778 855.26C109.859 855.26 109.044 855.078 108.334 854.714C107.623 854.333 107.06 853.821 106.644 853.18C106.245 852.521 106.046 851.785 106.046 850.97ZM114.522 851.672C114.955 851.256 115.172 850.857 115.172 850.476V849.098C114.27 848.734 113.36 848.552 112.442 848.552C111.523 848.552 110.778 848.751 110.206 849.15C109.634 849.531 109.348 850.043 109.348 850.684C109.348 851.204 109.556 851.672 109.972 852.088C110.388 852.504 110.986 852.712 111.766 852.712C112.286 852.712 112.788 852.617 113.274 852.426C113.776 852.235 114.192 851.984 114.522 851.672Z" fill="black"/>
<path d="M33.571 1046.54V1039.85H34.559C35.1657 1039.85 35.677 1039.52 36.093 1038.87C36.509 1038.21 36.8383 1037.14 37.081 1035.67C37.3237 1034.19 37.4797 1032.24 37.549 1029.82L37.705 1024.54H50.003V1039.85H52.447V1046.54H49.301V1043H36.717V1046.54H33.571ZM38.849 1039.85H46.441V1027.69H40.955L40.903 1030.29C40.8163 1032.99 40.6257 1035.1 40.331 1036.63C40.0537 1038.16 39.5597 1039.23 38.849 1039.85ZM63.0566 1043.26C61.982 1043.26 61.046 1043.02 60.2486 1042.53C59.4513 1042.05 58.8273 1041.41 58.3766 1040.61V1048.54H54.8926V1029.38H57.9346V1031.72C58.4373 1030.92 59.0873 1030.29 59.8846 1029.84C60.6993 1029.38 61.618 1029.14 62.6406 1029.14C63.8713 1029.14 64.9633 1029.46 65.9166 1030.1C66.87 1030.73 67.624 1031.58 68.1786 1032.65C68.7333 1033.71 69.0106 1034.88 69.0106 1036.16C69.0106 1037.5 68.7506 1038.7 68.2306 1039.78C67.728 1040.83 67.026 1041.68 66.1246 1042.32C65.2406 1042.95 64.218 1043.26 63.0566 1043.26ZM61.8866 1040.3C62.5973 1040.3 63.2126 1040.11 63.7326 1039.72C64.27 1039.33 64.686 1038.81 64.9806 1038.19C65.2926 1037.55 65.4486 1036.87 65.4486 1036.16C65.4486 1035.4 65.284 1034.71 64.9546 1034.11C64.6253 1033.48 64.1746 1033 63.6026 1032.65C63.048 1032.29 62.4066 1032.11 61.6786 1032.11C61.02 1032.11 60.3613 1032.32 59.7026 1032.76C59.044 1033.19 58.602 1033.74 58.3766 1034.39V1037.59C58.6886 1038.35 59.1653 1039 59.8066 1039.52C60.448 1040.04 61.1413 1040.3 61.8866 1040.3ZM70.4352 1038.97C70.4352 1038.09 70.6778 1037.31 71.1632 1036.66C71.6658 1035.98 72.3592 1035.46 73.2432 1035.1C74.1272 1034.73 75.1412 1034.55 76.2852 1034.55C76.8572 1034.55 77.4378 1034.6 78.0272 1034.71C78.6165 1034.79 79.1278 1034.92 79.5612 1035.1V1034.37C79.5612 1033.5 79.3012 1032.83 78.7812 1032.37C78.2785 1031.9 77.5245 1031.66 76.5192 1031.66C75.7738 1031.66 75.0632 1031.79 74.3872 1032.05C73.7112 1032.31 73.0005 1032.7 72.2552 1033.2L71.1372 1030.91C72.0385 1030.32 72.9572 1029.88 73.8932 1029.58C74.8465 1029.29 75.8432 1029.14 76.8832 1029.14C78.8245 1029.14 80.3325 1029.63 81.4072 1030.6C82.4992 1031.57 83.0452 1032.96 83.0452 1034.76V1039.1C83.0452 1039.48 83.1058 1039.75 83.2272 1039.91C83.3485 1040.04 83.5652 1040.13 83.8772 1040.17V1043C83.5652 1043.07 83.2792 1043.11 83.0192 1043.13C82.7765 1043.16 82.5685 1043.18 82.3952 1043.18C81.7018 1043.18 81.1732 1043.03 80.8092 1042.71C80.4452 1042.4 80.2285 1042.02 80.1592 1041.57L80.0812 1040.87C79.4745 1041.65 78.7292 1042.25 77.8452 1042.66C76.9785 1043.06 76.0858 1043.26 75.1672 1043.26C74.2485 1043.26 73.4338 1043.08 72.7232 1042.71C72.0125 1042.33 71.4492 1041.82 71.0332 1041.18C70.6345 1040.52 70.4352 1039.78 70.4352 1038.97ZM78.9112 1039.67C79.3445 1039.26 79.5612 1038.86 79.5612 1038.48V1037.1C78.6598 1036.73 77.7498 1036.55 76.8312 1036.55C75.9125 1036.55 75.1672 1036.75 74.5952 1037.15C74.0232 1037.53 73.7372 1038.04 73.7372 1038.68C73.7372 1039.2 73.9452 1039.67 74.3612 1040.09C74.7772 1040.5 75.3752 1040.71 76.1552 1040.71C76.6752 1040.71 77.1778 1040.62 77.6632 1040.43C78.1658 1040.24 78.5818 1039.98 78.9112 1039.67ZM86.3008 1043V1029.38H89.7848V1034.58H95.2968V1029.38H98.7808V1043H95.2968V1037.49H89.7848V1043H86.3008ZM101.967 1043V1029.38H105.451V1034.52H106.621L110.313 1029.38H114.109L109.273 1035.95L114.629 1043H110.651L106.569 1037.59H105.451V1043H101.967Z" fill="black"/>
<path d="M22.0661 1197.54V1216H18.5041V1208.12H10.1321V1216H6.54412V1197.54H10.1321V1205H18.5041V1197.54H22.0661ZM31.6426 1216.26C30.152 1216.26 28.8693 1215.94 27.7946 1215.3C26.7373 1214.64 25.9226 1213.77 25.3506 1212.7C24.7786 1211.62 24.4926 1210.46 24.4926 1209.21C24.4926 1207.95 24.7786 1206.78 25.3506 1205.7C25.94 1204.63 26.7633 1203.77 27.8206 1203.13C28.8953 1202.47 30.1693 1202.14 31.6426 1202.14C33.116 1202.14 34.3813 1202.47 35.4386 1203.13C36.5133 1203.77 37.3366 1204.63 37.9086 1205.7C38.4806 1206.78 38.7666 1207.95 38.7666 1209.21C38.7666 1210.46 38.4806 1211.62 37.9086 1212.7C37.3366 1213.77 36.5133 1214.64 35.4386 1215.3C34.3813 1215.94 33.116 1216.26 31.6426 1216.26ZM28.0806 1209.21C28.0806 1210.01 28.2366 1210.72 28.5486 1211.35C28.8606 1211.95 29.2853 1212.43 29.8226 1212.78C30.36 1213.12 30.9666 1213.3 31.6426 1213.3C32.3013 1213.3 32.8993 1213.12 33.4366 1212.78C33.974 1212.41 34.3986 1211.93 34.7106 1211.32C35.04 1210.7 35.2046 1209.99 35.2046 1209.19C35.2046 1208.41 35.04 1207.71 34.7106 1207.11C34.3986 1206.48 33.974 1206 33.4366 1205.65C32.8993 1205.29 32.3013 1205.11 31.6426 1205.11C30.9666 1205.11 30.36 1205.29 29.8226 1205.65C29.2853 1206 28.8606 1206.48 28.5486 1207.11C28.2366 1207.71 28.0806 1208.42 28.0806 1209.21ZM41.1182 1216V1202.38H48.7102C49.6462 1202.38 50.4002 1202.53 50.9722 1202.84C51.5616 1203.16 51.9949 1203.56 52.2722 1204.07C52.5496 1204.57 52.6882 1205.11 52.6882 1205.68C52.6882 1206.44 52.5149 1207.11 52.1682 1207.68C51.8216 1208.25 51.3016 1208.69 50.6082 1209.01C51.4056 1209.21 52.0556 1209.6 52.5582 1210.15C53.0609 1210.7 53.3122 1211.42 53.3122 1212.31C53.3122 1213.59 52.8616 1214.53 51.9602 1215.12C51.0762 1215.71 49.8716 1216 48.3462 1216H41.1182ZM44.4202 1208.04H47.8262C48.2942 1208.04 48.6756 1207.88 48.9702 1207.55C49.2649 1207.2 49.4122 1206.8 49.4122 1206.33C49.4122 1205.88 49.2649 1205.5 48.9702 1205.21C48.6929 1204.9 48.3202 1204.74 47.8522 1204.74H44.4202V1208.04ZM44.4202 1213.63H48.2422C48.7276 1213.63 49.1262 1213.47 49.4382 1213.14C49.7676 1212.81 49.9322 1212.4 49.9322 1211.92C49.9322 1211.43 49.7762 1211.03 49.4642 1210.72C49.1522 1210.39 48.7536 1210.23 48.2682 1210.23H44.4202V1213.63ZM54.9088 1211.97C54.9088 1211.09 55.1515 1210.31 55.6368 1209.66C56.1395 1208.98 56.8328 1208.46 57.7168 1208.1C58.6008 1207.73 59.6148 1207.55 60.7588 1207.55C61.3308 1207.55 61.9115 1207.6 62.5008 1207.71C63.0901 1207.79 63.6015 1207.92 64.0348 1208.1V1207.37C64.0348 1206.5 63.7748 1205.83 63.2548 1205.37C62.7521 1204.9 61.9981 1204.66 60.9928 1204.66C60.2475 1204.66 59.5368 1204.79 58.8608 1205.05C58.1848 1205.31 57.4741 1205.7 56.7288 1206.2L55.6108 1203.91C56.5121 1203.32 57.4308 1202.88 58.3668 1202.58C59.3201 1202.29 60.3168 1202.14 61.3568 1202.14C63.2981 1202.14 64.8061 1202.63 65.8808 1203.6C66.9728 1204.57 67.5188 1205.96 67.5188 1207.76V1212.1C67.5188 1212.48 67.5795 1212.75 67.7008 1212.91C67.8221 1213.04 68.0388 1213.13 68.3508 1213.17V1216C68.0388 1216.07 67.7528 1216.11 67.4928 1216.13C67.2501 1216.16 67.0421 1216.18 66.8688 1216.18C66.1755 1216.18 65.6468 1216.03 65.2828 1215.71C64.9188 1215.4 64.7021 1215.02 64.6328 1214.57L64.5548 1213.87C63.9481 1214.65 63.2028 1215.25 62.3188 1215.66C61.4521 1216.06 60.5595 1216.26 59.6408 1216.26C58.7221 1216.26 57.9075 1216.08 57.1968 1215.71C56.4861 1215.33 55.9228 1214.82 55.5068 1214.18C55.1081 1213.52 54.9088 1212.78 54.9088 1211.97ZM63.3848 1212.67C63.8181 1212.26 64.0348 1211.86 64.0348 1211.48V1210.1C63.1335 1209.73 62.2235 1209.55 61.3048 1209.55C60.3861 1209.55 59.6408 1209.75 59.0688 1210.15C58.4968 1210.53 58.2108 1211.04 58.2108 1211.68C58.2108 1212.2 58.4188 1212.67 58.8348 1213.09C59.2508 1213.5 59.8488 1213.71 60.6288 1213.71C61.1488 1213.71 61.6515 1213.62 62.1368 1213.43C62.6395 1213.24 63.0555 1212.98 63.3848 1212.67ZM81.3825 1219.3V1216H70.7745V1202.38H74.2585V1212.96H79.0425V1202.38H82.5265V1212.96H84.4505V1219.3H81.3825ZM86.7198 1216V1202.4H90.2038V1211.35L96.3138 1202.38H99.4858V1216H96.0018V1207.26L89.9698 1216H86.7198ZM108.957 1216.26C107.466 1216.26 106.184 1215.94 105.109 1215.3C104.052 1214.64 103.237 1213.77 102.665 1212.7C102.093 1211.62 101.807 1210.46 101.807 1209.21C101.807 1207.95 102.093 1206.78 102.665 1205.7C103.254 1204.63 104.078 1203.77 105.135 1203.13C106.21 1202.47 107.484 1202.14 108.957 1202.14C110.43 1202.14 111.696 1202.47 112.753 1203.13C113.828 1203.77 114.651 1204.63 115.223 1205.7C115.795 1206.78 116.081 1207.95 116.081 1209.21C116.081 1210.46 115.795 1211.62 115.223 1212.7C114.651 1213.77 113.828 1214.64 112.753 1215.3C111.696 1215.94 110.43 1216.26 108.957 1216.26ZM105.395 1209.21C105.395 1210.01 105.551 1210.72 105.863 1211.35C106.175 1211.95 106.6 1212.43 107.137 1212.78C107.674 1213.12 108.281 1213.3 108.957 1213.3C109.616 1213.3 110.214 1213.12 110.751 1212.78C111.288 1212.41 111.713 1211.93 112.025 1211.32C112.354 1210.7 112.519 1209.99 112.519 1209.19C112.519 1208.41 112.354 1207.71 112.025 1207.11C111.713 1206.48 111.288 1206 110.751 1205.65C110.214 1205.29 109.616 1205.11 108.957 1205.11C108.281 1205.11 107.674 1205.29 107.137 1205.65C106.6 1206 106.175 1206.48 105.863 1207.11C105.551 1207.71 105.395 1208.42 105.395 1209.21ZM118.433 1216V1202.38H121.917V1207.58H127.429V1202.38H130.913V1216H127.429V1210.49H121.917V1216H118.433ZM134.021 1210.44V1207.29H141.899V1210.44H134.021ZM50.9698 1247V1233.38H54.4538V1238.58H59.9658V1233.38H63.4498V1247H59.9658V1241.49H54.4538V1247H50.9698ZM66.6358 1247V1233.38H70.1198V1237.67H72.5118C74.1585 1237.67 75.4151 1238.08 76.2818 1238.91C77.1485 1239.75 77.5818 1240.85 77.5818 1242.22C77.5818 1243.62 77.1658 1244.77 76.3338 1245.67C75.5191 1246.56 74.3231 1247 72.7458 1247H66.6358ZM79.7138 1247V1233.4H83.1978V1247H79.7138ZM70.1198 1244.35H72.1998C72.9105 1244.35 73.4305 1244.15 73.7598 1243.75C74.0891 1243.33 74.2538 1242.83 74.2538 1242.24C74.2538 1241.67 74.0978 1241.19 73.7858 1240.81C73.4738 1240.41 72.9365 1240.21 72.1738 1240.21H70.1198V1244.35ZM88.6257 1233.38L91.4857 1237.64L91.6937 1238.11L91.9537 1237.64L94.7877 1233.38H98.4537L93.7217 1240.16L98.5317 1247H94.8657L91.9277 1242.76L91.6937 1242.32L91.4857 1242.76L88.5737 1247H84.9077L89.7177 1240.24L84.9857 1233.38H88.6257Z" fill="black"/>
<path d="M46.5444 1419V1406.88L41.8124 1415.91H39.8104L35.0784 1406.88V1419H31.4904V1400.54H35.3384L40.7984 1411.04L46.3104 1400.54H50.1324V1419H46.5444ZM52.9205 1419L56.3785 1413.7C55.5465 1413.47 54.8965 1413.03 54.4285 1412.37C53.9605 1411.71 53.7265 1410.84 53.7265 1409.77C53.7265 1408.44 54.1772 1407.36 55.0785 1406.55C55.9798 1405.73 57.1498 1405.32 58.5885 1405.32H65.0625V1419H61.5785V1414.29H59.7325L56.7425 1419H52.9205ZM59.0045 1411.8H61.5785V1408H59.1345C58.5105 1408 58.0165 1408.18 57.6525 1408.52C57.2885 1408.85 57.1065 1409.3 57.1065 1409.87C57.1065 1410.43 57.2625 1410.89 57.5745 1411.25C57.9038 1411.62 58.3805 1411.8 59.0045 1411.8ZM74.5667 1419.26C73.0934 1419.26 71.8194 1418.93 70.7447 1418.27C69.6701 1417.61 68.8381 1416.75 68.2487 1415.67C67.6594 1414.6 67.3647 1413.44 67.3647 1412.19C67.3647 1410.92 67.6507 1409.75 68.2227 1408.68C68.8121 1407.6 69.6441 1406.75 70.7187 1406.1C71.7934 1405.46 73.0674 1405.14 74.5407 1405.14C76.0314 1405.14 77.2967 1405.46 78.3367 1406.1C79.3941 1406.75 80.1827 1407.59 80.7027 1408.63L77.2967 1409.67C76.6901 1408.63 75.7627 1408.11 74.5147 1408.11C73.8387 1408.11 73.2321 1408.28 72.6947 1408.63C72.1574 1408.96 71.7327 1409.43 71.4207 1410.06C71.1087 1410.66 70.9527 1411.37 70.9527 1412.19C70.9527 1412.99 71.1087 1413.7 71.4207 1414.32C71.7501 1414.93 72.1834 1415.41 72.7207 1415.78C73.2581 1416.12 73.8561 1416.3 74.5147 1416.3C75.1387 1416.3 75.7107 1416.15 76.2307 1415.85C76.7681 1415.54 77.1407 1415.15 77.3487 1414.68L80.7547 1415.72C80.2867 1416.75 79.5067 1417.6 78.4147 1418.27C77.3401 1418.93 76.0574 1419.26 74.5667 1419.26ZM81.9625 1414.97C81.9625 1414.09 82.2052 1413.31 82.6905 1412.66C83.1932 1411.98 83.8865 1411.46 84.7705 1411.1C85.6545 1410.73 86.6685 1410.55 87.8125 1410.55C88.3845 1410.55 88.9652 1410.6 89.5545 1410.71C90.1438 1410.79 90.6552 1410.92 91.0885 1411.1V1410.37C91.0885 1409.5 90.8285 1408.83 90.3085 1408.37C89.8058 1407.9 89.0518 1407.66 88.0465 1407.66C87.3012 1407.66 86.5905 1407.79 85.9145 1408.05C85.2385 1408.31 84.5278 1408.7 83.7825 1409.2L82.6645 1406.91C83.5658 1406.32 84.4845 1405.88 85.4205 1405.58C86.3738 1405.29 87.3705 1405.14 88.4105 1405.14C90.3518 1405.14 91.8598 1405.63 92.9345 1406.6C94.0265 1407.57 94.5725 1408.96 94.5725 1410.76V1415.1C94.5725 1415.48 94.6332 1415.75 94.7545 1415.91C94.8758 1416.04 95.0925 1416.13 95.4045 1416.17V1419C95.0925 1419.07 94.8065 1419.11 94.5465 1419.13C94.3038 1419.16 94.0958 1419.18 93.9225 1419.18C93.2292 1419.18 92.7005 1419.03 92.3365 1418.71C91.9725 1418.4 91.7558 1418.02 91.6865 1417.57L91.6085 1416.87C91.0018 1417.65 90.2565 1418.25 89.3725 1418.66C88.5058 1419.06 87.6132 1419.26 86.6945 1419.26C85.7758 1419.26 84.9612 1419.08 84.2505 1418.71C83.5398 1418.33 82.9765 1417.82 82.5605 1417.18C82.1618 1416.52 81.9625 1415.78 81.9625 1414.97ZM90.4385 1415.67C90.8718 1415.26 91.0885 1414.86 91.0885 1414.48V1413.1C90.1872 1412.73 89.2772 1412.55 88.3585 1412.55C87.4398 1412.55 86.6945 1412.75 86.1225 1413.15C85.5505 1413.53 85.2645 1414.04 85.2645 1414.68C85.2645 1415.2 85.4725 1415.67 85.8885 1416.09C86.3045 1416.5 86.9025 1416.71 87.6825 1416.71C88.2025 1416.71 88.7052 1416.62 89.1905 1416.43C89.6932 1416.24 90.1092 1415.98 90.4385 1415.67ZM104.074 1419V1405.4H107.558V1414.35L113.668 1405.38H116.84V1419H113.356V1410.26L107.324 1419H104.074Z" fill="black"/>
<path d="M17.7406 1597.64C17.7406 1596.51 17.9399 1595.4 18.3386 1594.31C18.7546 1593.22 19.3526 1592.23 20.1326 1591.35C20.9126 1590.46 21.8659 1589.76 22.9926 1589.24C24.1192 1588.7 25.4019 1588.44 26.8406 1588.44C28.5219 1588.44 29.9866 1588.81 31.2346 1589.55C32.4826 1590.3 33.4099 1591.27 34.0166 1592.47L31.2606 1594.36C30.9486 1593.67 30.5412 1593.12 30.0386 1592.73C29.5359 1592.33 28.9899 1592.04 28.4006 1591.87C27.8286 1591.69 27.2739 1591.61 26.7366 1591.61C25.8352 1591.61 25.0466 1591.79 24.3706 1592.15C23.7119 1592.52 23.1572 1592.99 22.7066 1593.58C22.2559 1594.17 21.9179 1594.83 21.6926 1595.56C21.4846 1596.29 21.3806 1597.02 21.3806 1597.74C21.3806 1598.84 21.6059 1599.86 22.0566 1600.81C22.5072 1601.75 23.1399 1602.51 23.9546 1603.1C24.7692 1603.69 25.7139 1603.98 26.7886 1603.98C27.3432 1603.98 27.9152 1603.89 28.5046 1603.7C29.1112 1603.51 29.6659 1603.2 30.1686 1602.79C30.6712 1602.37 31.0612 1601.83 31.3386 1601.18L34.2766 1602.87C33.8952 1603.78 33.2972 1604.56 32.4826 1605.21C31.6679 1605.83 30.7492 1606.32 29.7266 1606.66C28.7039 1606.99 27.6899 1607.16 26.6846 1607.16C25.3672 1607.16 24.1626 1606.89 23.0706 1606.35C21.9959 1605.8 21.0599 1605.07 20.2626 1604.17C19.4652 1603.25 18.8412 1602.22 18.3906 1601.1C17.9572 1599.95 17.7406 1598.8 17.7406 1597.64ZM42.612 1607.26C41.1387 1607.26 39.8647 1606.94 38.79 1606.3C37.7327 1605.66 36.9093 1604.81 36.32 1603.75C35.7307 1602.68 35.436 1601.51 35.436 1600.27C35.436 1598.98 35.722 1597.8 36.294 1596.73C36.8833 1595.64 37.7153 1594.77 38.79 1594.13C39.8647 1593.47 41.1473 1593.14 42.638 1593.14C44.1287 1593.14 45.4027 1593.47 46.46 1594.13C47.5173 1594.77 48.3233 1595.63 48.878 1596.7C49.45 1597.76 49.736 1598.91 49.736 1600.14C49.736 1600.59 49.71 1600.98 49.658 1601.31H39.128C39.2147 1602.36 39.6047 1603.2 40.298 1603.8C41.0087 1604.41 41.8233 1604.71 42.742 1604.71C43.4353 1604.71 44.0853 1604.55 44.692 1604.22C45.316 1603.87 45.7407 1603.42 45.966 1602.87L48.956 1603.7C48.4533 1604.74 47.6473 1605.6 46.538 1606.27C45.4287 1606.93 44.12 1607.26 42.612 1607.26ZM39.05 1599.1H46.174C46.07 1598.07 45.68 1597.25 45.004 1596.63C44.3453 1595.98 43.5393 1595.66 42.586 1595.66C41.65 1595.66 40.844 1595.98 40.168 1596.63C39.5093 1597.25 39.1367 1598.07 39.05 1599.1ZM51.8585 1607V1593.4H55.3425V1602.35L61.4525 1593.38H64.6245V1607H61.1405V1598.26L55.1085 1607H51.8585ZM58.2545 1592.1C56.9198 1592.1 55.8711 1591.76 55.1085 1591.09C54.3458 1590.39 53.9645 1589.51 53.9645 1588.44H56.1225C56.1225 1588.96 56.2871 1589.39 56.6165 1589.74C56.9631 1590.08 57.5091 1590.26 58.2545 1590.26C58.9825 1590.26 59.5025 1590.09 59.8145 1589.76C60.1438 1589.43 60.3431 1588.99 60.4125 1588.44H62.5705C62.5705 1589.51 62.1891 1590.39 61.4265 1591.09C60.6638 1591.76 59.6065 1592.1 58.2545 1592.1ZM75.3958 1607V1602.11C74.4251 1602.55 73.2984 1602.76 72.0158 1602.76C70.5771 1602.76 69.4504 1602.38 68.6358 1601.62C67.8211 1600.84 67.4138 1599.7 67.4138 1598.21V1593.38H70.8978V1597.74C70.8978 1599.32 71.6258 1600.11 73.0818 1600.11C73.4978 1600.11 73.9051 1600.07 74.3038 1599.98C74.7198 1599.89 75.0838 1599.77 75.3958 1599.62V1593.38H78.9058V1607H75.3958ZM81.1373 1602.97C81.1373 1602.09 81.38 1601.31 81.8653 1600.66C82.368 1599.98 83.0613 1599.46 83.9453 1599.1C84.8293 1598.73 85.8433 1598.55 86.9873 1598.55C87.5593 1598.55 88.14 1598.6 88.7293 1598.71C89.3186 1598.79 89.83 1598.92 90.2633 1599.1V1598.37C90.2633 1597.5 90.0033 1596.83 89.4833 1596.37C88.9806 1595.9 88.2266 1595.66 87.2213 1595.66C86.476 1595.66 85.7653 1595.79 85.0893 1596.05C84.4133 1596.31 83.7026 1596.7 82.9573 1597.2L81.8393 1594.91C82.7406 1594.32 83.6593 1593.88 84.5953 1593.58C85.5486 1593.29 86.5453 1593.14 87.5853 1593.14C89.5266 1593.14 91.0346 1593.63 92.1093 1594.6C93.2013 1595.57 93.7473 1596.96 93.7473 1598.76V1603.1C93.7473 1603.48 93.808 1603.75 93.9293 1603.91C94.0506 1604.04 94.2673 1604.13 94.5793 1604.17V1607C94.2673 1607.07 93.9813 1607.11 93.7213 1607.13C93.4786 1607.16 93.2706 1607.18 93.0973 1607.18C92.404 1607.18 91.8753 1607.03 91.5113 1606.71C91.1473 1606.4 90.9306 1606.02 90.8613 1605.57L90.7833 1604.87C90.1766 1605.65 89.4313 1606.25 88.5473 1606.66C87.6806 1607.06 86.788 1607.26 85.8693 1607.26C84.9506 1607.26 84.136 1607.08 83.4253 1606.71C82.7146 1606.33 82.1513 1605.82 81.7353 1605.18C81.3366 1604.52 81.1373 1603.78 81.1373 1602.97ZM89.6133 1603.67C90.0466 1603.26 90.2633 1602.86 90.2633 1602.48V1601.1C89.362 1600.73 88.452 1600.55 87.5333 1600.55C86.6146 1600.55 85.8693 1600.75 85.2973 1601.15C84.7253 1601.53 84.4393 1602.04 84.4393 1602.68C84.4393 1603.2 84.6473 1603.67 85.0633 1604.09C85.4793 1604.5 86.0773 1604.71 86.8573 1604.71C87.3773 1604.71 87.88 1604.62 88.3653 1604.43C88.868 1604.24 89.284 1603.98 89.6133 1603.67ZM103.347 1607.26C101.874 1607.26 100.6 1606.93 99.525 1606.27C98.4503 1605.61 97.6183 1604.75 97.029 1603.67C96.4397 1602.6 96.145 1601.44 96.145 1600.19C96.145 1598.92 96.431 1597.75 97.003 1596.68C97.5923 1595.6 98.4243 1594.75 99.499 1594.1C100.574 1593.46 101.848 1593.14 103.321 1593.14C104.812 1593.14 106.077 1593.46 107.117 1594.1C108.174 1594.75 108.963 1595.59 109.483 1596.63L106.077 1597.67C105.47 1596.63 104.543 1596.11 103.295 1596.11C102.619 1596.11 102.012 1596.28 101.475 1596.63C100.938 1596.96 100.513 1597.43 100.201 1598.06C99.889 1598.66 99.733 1599.37 99.733 1600.19C99.733 1600.99 99.889 1601.7 100.201 1602.32C100.53 1602.93 100.964 1603.41 101.501 1603.78C102.038 1604.12 102.636 1604.3 103.295 1604.3C103.919 1604.3 104.491 1604.15 105.011 1603.85C105.548 1603.54 105.921 1603.15 106.129 1602.68L109.535 1603.72C109.067 1604.75 108.287 1605.6 107.195 1606.27C106.12 1606.93 104.838 1607.26 103.347 1607.26ZM117.925 1607V1593.38H125.517C126.453 1593.38 127.207 1593.53 127.779 1593.84C128.368 1594.16 128.802 1594.56 129.079 1595.07C129.356 1595.57 129.495 1596.11 129.495 1596.68C129.495 1597.44 129.322 1598.11 128.975 1598.68C128.628 1599.25 128.108 1599.69 127.415 1600.01C128.212 1600.21 128.862 1600.6 129.365 1601.15C129.868 1601.7 130.119 1602.42 130.119 1603.31C130.119 1604.59 129.668 1605.53 128.767 1606.12C127.883 1606.71 126.678 1607 125.153 1607H117.925ZM121.227 1599.04H124.633C125.101 1599.04 125.482 1598.88 125.777 1598.55C126.072 1598.2 126.219 1597.8 126.219 1597.33C126.219 1596.88 126.072 1596.5 125.777 1596.21C125.5 1595.9 125.127 1595.74 124.659 1595.74H121.227V1599.04ZM121.227 1604.63H125.049C125.534 1604.63 125.933 1604.47 126.245 1604.14C126.574 1603.81 126.739 1603.4 126.739 1602.92C126.739 1602.43 126.583 1602.03 126.271 1601.72C125.959 1601.39 125.56 1601.23 125.075 1601.23H121.227V1604.63Z" fill="black"/>
<path d="M58.2731 648.54V667H54.7111V659.122H46.3391V667H42.7511V648.54H46.3391V656.002H54.7111V648.54H58.2731ZM60.6979 662.97C60.6979 662.086 60.9405 661.315 61.4259 660.656C61.9285 659.98 62.6219 659.46 63.5059 659.096C64.3899 658.732 65.4039 658.55 66.5479 658.55C67.1199 658.55 67.7005 658.602 68.2899 658.706C68.8792 658.793 69.3905 658.923 69.8239 659.096V658.368C69.8239 657.501 69.5639 656.834 69.0439 656.366C68.5412 655.898 67.7872 655.664 66.7819 655.664C66.0365 655.664 65.3259 655.794 64.6499 656.054C63.9739 656.314 63.2632 656.695 62.5179 657.198L61.3999 654.91C62.3012 654.321 63.2199 653.879 64.1559 653.584C65.1092 653.289 66.1059 653.142 67.1459 653.142C69.0872 653.142 70.5952 653.627 71.6699 654.598C72.7619 655.569 73.3079 656.955 73.3079 658.758V663.1C73.3079 663.481 73.3685 663.75 73.4899 663.906C73.6112 664.045 73.8279 664.131 74.1399 664.166V667C73.8279 667.069 73.5419 667.113 73.2819 667.13C73.0392 667.165 72.8312 667.182 72.6579 667.182C71.9645 667.182 71.4359 667.026 71.0719 666.714C70.7079 666.402 70.4912 666.021 70.4219 665.57L70.3439 664.868C69.7372 665.648 68.9919 666.246 68.1079 666.662C67.2412 667.061 66.3485 667.26 65.4299 667.26C64.5112 667.26 63.6965 667.078 62.9859 666.714C62.2752 666.333 61.7119 665.821 61.2959 665.18C60.8972 664.521 60.6979 663.785 60.6979 662.97ZM69.1739 663.672C69.6072 663.256 69.8239 662.857 69.8239 662.476V661.098C68.9225 660.734 68.0125 660.552 67.0939 660.552C66.1752 660.552 65.4299 660.751 64.8579 661.15C64.2859 661.531 63.9999 662.043 63.9999 662.684C63.9999 663.204 64.2079 663.672 64.6239 664.088C65.0399 664.504 65.6379 664.712 66.4179 664.712C66.9379 664.712 67.4405 664.617 67.9259 664.426C68.4285 664.235 68.8445 663.984 69.1739 663.672ZM75.4455 670.302V663.958H75.8095C76.2602 663.958 76.6762 663.785 77.0575 663.438C77.4389 663.091 77.7509 662.467 77.9935 661.566C78.2535 660.665 78.4095 659.365 78.4615 657.666L78.6175 653.376H88.8355V663.958H90.7335V670.302H87.6915V667H78.5135V670.302H75.4455ZM80.2035 663.958H85.3515V656.314H81.6595L81.5815 658.004C81.5122 659.737 81.3649 661.063 81.1395 661.982C80.9142 662.901 80.6022 663.559 80.2035 663.958ZM99.2833 667.26C97.7926 667.26 96.5099 666.939 95.4353 666.298C94.3779 665.639 93.5633 664.773 92.9913 663.698C92.4193 662.623 92.1333 661.462 92.1333 660.214C92.1333 658.949 92.4193 657.779 92.9913 656.704C93.5806 655.629 94.4039 654.771 95.4613 654.13C96.5359 653.471 97.8099 653.142 99.2833 653.142C100.757 653.142 102.022 653.471 103.079 654.13C104.154 654.771 104.977 655.629 105.549 656.704C106.121 657.779 106.407 658.949 106.407 660.214C106.407 661.462 106.121 662.623 105.549 663.698C104.977 664.773 104.154 665.639 103.079 666.298C102.022 666.939 100.757 667.26 99.2833 667.26ZM95.7213 660.214C95.7213 661.011 95.8773 661.722 96.1893 662.346C96.5013 662.953 96.9259 663.429 97.4633 663.776C98.0006 664.123 98.6073 664.296 99.2833 664.296C99.9419 664.296 100.54 664.123 101.077 663.776C101.615 663.412 102.039 662.927 102.351 662.32C102.681 661.696 102.845 660.985 102.845 660.188C102.845 659.408 102.681 658.715 102.351 658.108C102.039 657.484 101.615 656.999 101.077 656.652C100.54 656.288 99.9419 656.106 99.2833 656.106C98.6073 656.106 98.0006 656.288 97.4633 656.652C96.9259 656.999 96.5013 657.484 96.1893 658.108C95.8773 658.715 95.7213 659.417 95.7213 660.214Z" fill="black"/>
<path d="M58.9407 479.156C57.1554 479.156 55.6214 478.766 54.3387 477.986C53.0734 477.206 52.0681 476.166 51.3227 474.866L54.2867 473.176C54.7374 474.06 55.3701 474.753 56.1847 475.256C57.0167 475.741 57.9441 475.984 58.9667 475.984C59.9721 475.984 60.8561 475.759 61.6187 475.308C62.3814 474.84 62.9967 474.225 63.4647 473.462C63.9327 472.682 64.2274 471.824 64.3487 470.888H57.3807V468.236H64.2967C64.1407 467.404 63.8374 466.641 63.3867 465.948C62.9361 465.237 62.3381 464.674 61.5927 464.258C60.8474 463.825 59.9721 463.608 58.9667 463.608C57.9614 463.608 57.0601 463.851 56.2627 464.336C55.4654 464.821 54.8414 465.515 54.3907 466.416L51.5567 464.466C52.3021 463.27 53.2641 462.299 54.4427 461.554C55.6387 460.809 57.1554 460.436 58.9927 460.436C60.4314 460.436 61.7141 460.696 62.8407 461.216C63.9674 461.736 64.9207 462.438 65.7007 463.322C66.4807 464.206 67.0701 465.203 67.4687 466.312C67.8847 467.421 68.0927 468.574 68.0927 469.77C68.0927 471.018 67.8761 472.205 67.4427 473.332C67.0094 474.459 66.3941 475.464 65.5967 476.348C64.7994 477.215 63.8374 477.899 62.7107 478.402C61.5841 478.905 60.3274 479.156 58.9407 479.156ZM73.6539 479V468.418H69.3379V465.376H81.4799V468.418H77.1379V479H73.6539ZM89.7237 479.26C88.233 479.26 86.9504 478.939 85.8757 478.298C84.8184 477.639 84.0037 476.773 83.4317 475.698C82.8597 474.623 82.5737 473.462 82.5737 472.214C82.5737 470.949 82.8597 469.779 83.4317 468.704C84.021 467.629 84.8444 466.771 85.9017 466.13C86.9764 465.471 88.2504 465.142 89.7237 465.142C91.197 465.142 92.4624 465.471 93.5197 466.13C94.5944 466.771 95.4177 467.629 95.9897 468.704C96.5617 469.779 96.8477 470.949 96.8477 472.214C96.8477 473.462 96.5617 474.623 95.9897 475.698C95.4177 476.773 94.5944 477.639 93.5197 478.298C92.4624 478.939 91.197 479.26 89.7237 479.26ZM86.1617 472.214C86.1617 473.011 86.3177 473.722 86.6297 474.346C86.9417 474.953 87.3664 475.429 87.9037 475.776C88.441 476.123 89.0477 476.296 89.7237 476.296C90.3824 476.296 90.9804 476.123 91.5177 475.776C92.055 475.412 92.4797 474.927 92.7917 474.32C93.121 473.696 93.2857 472.985 93.2857 472.188C93.2857 471.408 93.121 470.715 92.7917 470.108C92.4797 469.484 92.055 468.999 91.5177 468.652C90.9804 468.288 90.3824 468.106 89.7237 468.106C89.0477 468.106 88.441 468.288 87.9037 468.652C87.3664 468.999 86.9417 469.484 86.6297 470.108C86.3177 470.715 86.1617 471.417 86.1617 472.214Z" fill="black"/>
</svg>
